<?xml version="1.0" encoding="utf-8" ?>
<svg xmlns="http://www.w3.org/2000/svg" xmlns:xlink="http://www.w3.org/1999/xlink" width="276" height="276">
	<path fill="#7014F2" transform="scale(0.539062 0.539062)" d="M0 0L0 512L512 512L512 0L0 0Z"/>
	<path fill="#00F59B" transform="scale(0.539062 0.539062)" d="M384.424 343.873C376.733 343.642 290.387 343.735 289.96 343.946C289.308 344.267 285.053 350.502 283.429 351.836C282.197 352.217 280.719 352.139 279.438 352.145L231.657 352.129C222.145 352.017 225.83 349.173 220.992 344.039L89.059 343.973L89.0151 139.014C89.0258 129.85 88.7354 120.153 95.3441 112.825C100.522 107.083 109.245 103.972 116.849 103.608L119.825 103.488L384.536 103.482C388.004 103.483 391.639 103.298 395.086 103.66C418.454 106.115 422.869 119.15 422.883 139.318L422.925 340.007C422.928 340.738 423.144 343.455 422.809 343.85L384.424 343.873ZM122.456 136.4L122.705 316.074L388.301 316.07L389.053 136.363L122.456 136.4Z"/>
	<path fill="#00F59B" transform="scale(0.539062 0.539062)" d="M259.619 302.639C232.01 306.061 225.931 266.534 250.431 261.358C245.466 260.929 240.887 258.864 236.783 256.097C211.038 238.736 218.943 196.336 248.492 190.918C227.725 184.005 232.804 153.562 254.78 151.598C265.661 150.61 275.346 159.597 276.635 170.097C277.703 178.802 271.56 189.21 262.487 190.273C267.816 191.42 272.617 193.167 277.097 196.343C292.695 207.404 297.466 231.674 286.056 247.343C280.022 255.632 271.665 260.058 261.595 261.602C282.217 265.094 282.329 298.236 259.619 302.639Z"/>
	<path fill="#00F59B" transform="scale(0.539062 0.539062)" d="M312.043 299.215C299.148 305.832 283.123 296.563 281.476 282.412C280.622 275.08 283.72 266.772 289.644 262.317C295.1 258.215 295.276 259.316 299.909 253.697L306.227 245.953C319.588 228.757 312.989 217.648 301.27 202.216C295.908 195.154 295.796 196.072 289.054 190.847C273.574 178.85 282.445 154.608 300.891 152.562C321.491 151.539 330.643 173.994 317.717 188.596C319.463 191.622 326.716 206.468 328.348 207.488C329.243 208.047 331.807 207.913 332.873 207.978C349.004 208.942 359.48 222.648 351.32 237.889C345.743 248.307 338.482 245.856 330.244 248.399C326.366 249.595 320.078 261.256 318.043 265.057L321.014 269.678C326.863 280.472 322.857 293.488 312.043 299.215Z"/>
	<path fill="#00F59B" transform="scale(0.539062 0.539062)" d="M203.44 300.658C188.878 295.353 183.92 278.399 193.595 265.813C194.804 264.24 194.502 264.342 193.57 262.684C180.589 239.609 176.852 252.945 164.983 243.301C156.976 236.797 155.276 223.551 161.968 215.444C167.788 208.393 176.017 208.233 184.392 207.484L194.797 188.317C183.098 176.854 189.831 155.863 206.278 153.123C218.052 152.091 229.285 159.657 230.915 171.823C231.74 177.976 229.204 185.679 224.669 189.934C221.837 192.591 218.135 194.104 215.351 196.804C213.567 198.537 212.076 200.653 210.575 202.631C195.979 221.862 194.61 231.15 208.844 249.361C214.158 256.161 215.471 257.386 222.174 262.088C239.911 274.53 228.236 307.23 203.44 300.658Z"/>
	<path fill="#00F59B" transform="scale(0.539062 0.539062)" d="M433.57 391.006C428.475 400.017 419.969 405.815 409.354 405.885L109.525 405.909C106.223 405.909 102.603 406.178 99.339 405.772C87.0334 404.242 76.9052 393.499 75.4504 381.255C75.0172 377.609 75.3206 373.657 75.3226 369.979L75.3351 353.846L204.64 353.933C212.786 353.971 211.885 355.028 215.473 363.116C217.339 367.324 216.867 365.928 221.805 365.928L293.115 365.929C295.376 364.913 298.94 353.936 300.324 353.932L437.036 353.906L437.02 371.567C437.009 378.865 437.107 384.288 433.57 391.006Z"/>
</svg>
