<?xml version="1.0" encoding="utf-8" ?>
<svg xmlns="http://www.w3.org/2000/svg" xmlns:xlink="http://www.w3.org/1999/xlink" width="276" height="276">
	<path fill="#00F59B" transform="scale(0.539062 0.539062)" d="M0 0L0 512L512 512L512 0L0 0Z"/>
	<path fill="#7014F2" transform="scale(0.539062 0.539062)" d="M332.99 247.179C328.379 247.041 276.615 247.097 276.359 247.223C275.968 247.415 273.417 251.154 272.444 251.953C271.705 252.182 270.819 252.135 270.051 252.138L241.406 252.129C235.704 252.062 237.913 250.357 235.013 247.279L155.92 247.239L155.893 124.368C155.9 118.874 155.725 113.06 159.687 108.667C162.792 105.225 168.021 103.36 172.579 103.141L174.364 103.069L333.057 103.066C335.136 103.067 337.315 102.956 339.381 103.173C353.39 104.644 356.038 112.459 356.046 124.55L356.071 244.862C356.073 245.3 356.202 246.929 356.001 247.166L332.99 247.179ZM175.941 122.8L176.09 230.514L335.314 230.511L335.765 122.778L175.941 122.8Z"/>
	<path fill="#7014F2" transform="scale(0.539062 0.539062)" d="M258.169 222.46C241.618 224.511 237.974 200.815 252.661 197.712C249.685 197.455 246.94 196.217 244.479 194.558C229.046 184.15 233.784 158.732 251.499 155.483C239.049 151.339 242.094 133.089 255.268 131.911C261.792 131.319 267.598 136.707 268.37 143.001C269.011 148.22 265.328 154.46 259.889 155.097C263.084 155.785 265.962 156.832 268.647 158.736C277.999 165.367 280.858 179.917 274.019 189.31C270.401 194.279 265.391 196.933 259.354 197.858C271.717 199.952 271.784 219.82 258.169 222.46Z"/>
	<path fill="#7014F2" transform="scale(0.539062 0.539062)" d="M289.598 220.407C281.867 224.374 272.26 218.817 271.273 210.334C270.761 205.938 272.618 200.958 276.17 198.287C279.44 195.828 279.546 196.488 282.323 193.119L286.111 188.477C294.121 178.168 290.165 171.508 283.139 162.257C279.925 158.023 279.858 158.574 275.816 155.441C266.536 148.249 271.853 133.716 282.912 132.489C295.262 131.876 300.748 145.338 292.999 154.092C294.046 155.905 298.394 164.806 299.372 165.417C299.909 165.752 301.446 165.672 302.085 165.711C311.756 166.289 318.036 174.506 313.144 183.643C309.801 189.888 305.448 188.419 300.509 189.943C298.184 190.66 294.415 197.651 293.194 199.93L294.976 202.7C298.482 209.171 296.08 216.974 289.598 220.407Z"/>
	<path fill="#7014F2" transform="scale(0.539062 0.539062)" d="M224.491 221.272C215.761 218.092 212.789 207.928 218.588 200.383C219.313 199.44 219.132 199.501 218.574 198.507C210.791 184.674 208.551 192.669 201.436 186.887C196.636 182.988 195.616 175.047 199.628 170.187C203.117 165.96 208.05 165.864 213.071 165.415L219.309 153.924C212.295 147.052 216.332 134.468 226.192 132.825C233.251 132.207 239.985 136.743 240.962 144.036C241.456 147.725 239.936 152.343 237.217 154.894C235.519 156.486 233.3 157.393 231.631 159.012C230.561 160.051 229.668 161.319 228.768 162.505C220.018 174.034 219.197 179.603 227.73 190.52C230.916 194.596 231.703 195.331 235.721 198.149C246.354 205.609 239.356 225.212 224.491 221.272Z"/>
	<path fill="#7014F2" transform="scale(0.539062 0.539062)" d="M362.452 275.435C359.398 280.838 354.299 284.313 347.935 284.355L168.189 284.37C166.209 284.37 164.039 284.531 162.082 284.288C154.705 283.371 148.633 276.93 147.761 269.59C147.501 267.404 147.683 265.035 147.685 262.83L147.692 253.158L225.21 253.21C230.093 253.233 229.553 253.867 231.704 258.715C232.823 261.239 232.54 260.401 235.5 260.401L278.25 260.402C279.606 259.793 281.742 253.212 282.572 253.21L364.53 253.194L364.521 263.782C364.514 268.157 364.573 271.408 362.452 275.435Z"/>
	<path fill="#7014F2" transform="scale(0.539062 0.539062)" d="M65 421.076L66.0315 365.374L73.6646 365.374L83.4983 410.554L93.4007 365.374L100.965 365.374L101.997 421.076L95.7388 421.076L95.1199 380.641L85.6988 421.076L81.2977 421.076L71.9455 380.641L71.3266 421.076L65 421.076ZM115.887 421.626C114.329 421.626 112.953 421.179 111.761 420.285C110.57 419.391 109.63 418.245 108.942 416.846C108.254 415.448 107.911 413.97 107.911 412.411C107.911 409.935 108.323 407.849 109.148 406.153C109.974 404.457 111.108 403.024 112.552 401.855C113.996 400.686 115.67 399.666 117.572 398.795C119.475 397.924 121.481 397.076 123.589 396.251L123.589 393.431C123.589 391.827 123.498 390.497 123.314 389.443C123.131 388.388 122.753 387.598 122.18 387.07C121.607 386.543 120.747 386.279 119.601 386.279C118.592 386.279 117.779 386.509 117.16 386.967C116.541 387.426 116.094 388.079 115.819 388.927C115.544 389.775 115.406 390.772 115.406 391.918L115.406 393.913L108.117 393.638C108.208 389.236 109.217 385.993 111.143 383.907C113.068 381.821 116.048 380.778 120.082 380.778C124.025 380.778 126.821 381.855 128.472 384.01C130.122 386.165 130.947 389.282 130.947 393.362L130.947 411.517C130.947 412.755 130.982 413.947 131.051 415.093C131.119 416.239 131.211 417.305 131.326 418.29C131.44 419.276 131.543 420.204 131.635 421.076L124.896 421.076C124.758 420.342 124.586 419.414 124.38 418.29C124.174 417.167 124.025 416.147 123.933 415.23C123.475 416.789 122.592 418.245 121.286 419.597C119.979 420.949 118.18 421.626 115.887 421.626ZM118.776 415.299C119.509 415.299 120.197 415.093 120.839 414.68C121.481 414.268 122.054 413.798 122.558 413.27C123.062 412.743 123.406 412.319 123.589 411.998L123.589 400.721C122.443 401.362 121.366 402.004 120.357 402.646C119.349 403.288 118.466 403.964 117.71 404.675C116.953 405.385 116.357 406.187 115.922 407.081C115.486 407.975 115.269 408.995 115.269 410.142C115.269 411.746 115.567 413.007 116.163 413.924C116.759 414.841 117.63 415.299 118.776 415.299ZM138.237 421.076L138.237 381.328L145.595 381.328L145.595 386.967C147.062 384.537 148.529 382.91 149.996 382.085C151.463 381.259 152.93 380.847 154.397 380.847C154.581 380.847 154.752 380.847 154.913 380.847C155.073 380.847 155.291 380.87 155.566 380.916L155.566 389.03C155.016 388.801 154.385 388.606 153.675 388.446C152.965 388.285 152.242 388.205 151.509 388.205C150.362 388.205 149.32 388.469 148.38 388.996C147.44 389.523 146.511 390.543 145.595 392.056L145.595 421.076L138.237 421.076ZM160.586 421.076L160.586 381.328L167.944 381.328L167.944 421.076L160.586 421.076ZM160.586 375.414L160.586 367.712L167.944 367.712L167.944 375.414L160.586 375.414ZM181.56 421.626C180.001 421.626 178.786 421.213 177.915 420.388C177.044 419.563 176.437 418.531 176.093 417.293C175.749 416.056 175.577 414.795 175.577 413.511L175.577 381.328L182.935 381.328L182.935 411.311C182.935 412.732 183.141 413.844 183.554 414.646C183.967 415.448 184.815 415.849 186.098 415.849C186.924 415.849 187.783 415.609 188.677 415.127C189.571 414.646 190.431 414.061 191.256 413.374L191.256 381.328L198.614 381.328L198.614 421.076L191.256 421.076L191.256 417.156C189.972 418.394 188.517 419.448 186.889 420.319C185.262 421.19 183.485 421.626 181.56 421.626ZM215.324 421.626C212.07 421.626 209.457 420.606 207.485 418.566C205.513 416.525 204.39 413.832 204.115 410.485L210.236 408.629C210.602 411.15 211.221 413.041 212.092 414.302C212.964 415.563 214.247 416.193 215.943 416.193C217.273 416.193 218.281 415.815 218.969 415.058C219.657 414.302 220.001 413.282 220.001 411.998C220.001 410.852 219.748 409.821 219.244 408.904C218.74 407.987 217.915 407.047 216.768 406.084L209.961 400.239C208.585 399.047 207.428 397.718 206.488 396.251C205.548 394.784 205.078 392.881 205.078 390.543C205.078 388.434 205.502 386.658 206.35 385.214C207.198 383.769 208.391 382.669 209.926 381.913C211.462 381.156 213.261 380.778 215.324 380.778C218.625 380.778 221.147 381.798 222.889 383.838C224.631 385.878 225.639 388.342 225.914 391.231L220.688 393.087C220.505 391.712 220.23 390.509 219.863 389.477C219.496 388.446 218.969 387.643 218.281 387.07C217.594 386.497 216.7 386.211 215.599 386.211C214.408 386.211 213.456 386.612 212.746 387.414C212.035 388.216 211.68 389.168 211.68 390.268C211.68 390.956 211.829 391.632 212.127 392.297C212.424 392.961 212.94 393.615 213.674 394.256L220.688 400.721C221.651 401.592 222.557 402.531 223.405 403.54C224.252 404.549 224.952 405.695 225.502 406.978C226.052 408.262 226.327 409.752 226.327 411.448C226.327 413.695 225.868 415.574 224.952 417.087C224.035 418.6 222.751 419.735 221.101 420.491C219.45 421.247 217.525 421.626 215.324 421.626ZM248.195 421.076L248.195 365.374L269.719 365.374L269.719 370.944L255.966 370.944L255.966 389.512L266.624 389.512L266.624 395.013L255.966 395.013L255.966 421.076L248.195 421.076ZM275.152 421.076L275.152 365.374L282.51 365.374L282.51 421.076L275.152 421.076ZM301.145 421.626C298.211 421.626 295.896 421.03 294.2 419.838C292.504 418.646 291.3 416.95 290.59 414.749C289.879 412.548 289.524 409.958 289.524 406.978L289.524 395.425C289.524 392.446 289.879 389.855 290.59 387.655C291.3 385.454 292.504 383.758 294.2 382.566C295.896 381.374 298.211 380.778 301.145 380.778C304.08 380.778 306.383 381.374 308.057 382.566C309.73 383.758 310.922 385.454 311.632 387.655C312.343 389.855 312.698 392.446 312.698 395.425L312.698 406.978C312.698 409.958 312.343 412.548 311.632 414.749C310.922 416.95 309.73 418.646 308.057 419.838C306.383 421.03 304.08 421.626 301.145 421.626ZM301.145 416.193C302.567 416.193 303.564 415.78 304.137 414.955C304.71 414.13 305.053 413.041 305.168 411.689C305.283 410.336 305.34 408.927 305.34 407.46L305.34 395.013C305.34 393.5 305.283 392.079 305.168 390.749C305.053 389.42 304.71 388.331 304.137 387.483C303.564 386.635 302.567 386.211 301.145 386.211C299.724 386.211 298.716 386.635 298.12 387.483C297.524 388.331 297.169 389.42 297.054 390.749C296.939 392.079 296.882 393.5 296.882 395.013L296.882 407.46C296.882 408.927 296.939 410.336 297.054 411.689C297.169 413.041 297.524 414.13 298.12 414.955C298.716 415.78 299.724 416.193 301.145 416.193ZM319.644 421.076L319.644 381.328L327.002 381.328L327.002 386.967C328.469 384.537 329.936 382.91 331.403 382.085C332.87 381.259 334.337 380.847 335.804 380.847C335.988 380.847 336.159 380.847 336.32 380.847C336.48 380.847 336.698 380.87 336.973 380.916L336.973 389.03C336.423 388.801 335.792 388.606 335.082 388.446C334.372 388.285 333.649 388.205 332.916 388.205C331.769 388.205 330.727 388.469 329.787 388.996C328.847 389.523 327.918 390.543 327.002 392.056L327.002 421.076L319.644 421.076ZM352.308 421.626C349.191 421.626 346.784 421.018 345.087 419.803C343.391 418.588 342.211 416.8 341.546 414.44C340.881 412.079 340.549 409.179 340.549 405.741L340.549 396.663C340.549 393.133 340.893 390.199 341.58 387.861C342.268 385.523 343.471 383.758 345.191 382.566C346.91 381.374 349.282 380.778 352.308 380.778C355.655 380.778 358.119 381.466 359.7 382.841C361.282 384.216 362.325 386.199 362.829 388.789C363.333 391.38 363.586 394.486 363.586 398.107L363.586 401.339L347.907 401.339L347.907 409.316C347.907 410.921 348.056 412.227 348.354 413.236C348.652 414.245 349.133 414.99 349.798 415.471C350.463 415.952 351.323 416.193 352.377 416.193C353.477 416.193 354.314 415.929 354.887 415.402C355.46 414.875 355.85 414.119 356.056 413.133C356.262 412.147 356.365 410.99 356.365 409.66L356.365 407.253L363.517 407.253L363.517 408.766C363.517 412.755 362.669 415.895 360.973 418.187C359.276 420.48 356.388 421.626 352.308 421.626ZM347.907 397.351L356.365 397.351L356.365 393.775C356.365 392.125 356.274 390.738 356.09 389.615C355.907 388.491 355.528 387.643 354.956 387.07C354.383 386.497 353.477 386.211 352.239 386.211C351.048 386.211 350.142 386.486 349.523 387.036C348.904 387.586 348.48 388.514 348.251 389.821C348.022 391.128 347.907 392.927 347.907 395.219L347.907 397.351ZM379.471 421.626C376.216 421.626 373.603 420.606 371.632 418.566C369.66 416.525 368.537 413.832 368.262 410.485L374.382 408.629C374.749 411.15 375.368 413.041 376.239 414.302C377.11 415.563 378.393 416.193 380.09 416.193C381.419 416.193 382.428 415.815 383.116 415.058C383.803 414.302 384.147 413.282 384.147 411.998C384.147 410.852 383.895 409.821 383.391 408.904C382.887 407.987 382.061 407.047 380.915 406.084L374.107 400.239C372.732 399.047 371.574 397.718 370.634 396.251C369.694 394.784 369.225 392.881 369.225 390.543C369.225 388.434 369.649 386.658 370.497 385.214C371.345 383.769 372.537 382.669 374.073 381.913C375.608 381.156 377.408 380.778 379.471 380.778C382.772 380.778 385.293 381.798 387.035 383.838C388.777 385.878 389.786 388.342 390.061 391.231L384.835 393.087C384.651 391.712 384.376 390.509 384.01 389.477C383.643 388.446 383.116 387.643 382.428 387.07C381.74 386.497 380.846 386.211 379.746 386.211C378.554 386.211 377.603 386.612 376.892 387.414C376.182 388.216 375.826 389.168 375.826 390.268C375.826 390.956 375.976 391.632 376.273 392.297C376.571 392.961 377.087 393.615 377.821 394.256L384.835 400.721C385.797 401.592 386.703 402.531 387.551 403.54C388.399 404.549 389.098 405.695 389.648 406.978C390.199 408.262 390.474 409.752 390.474 411.448C390.474 413.695 390.015 415.574 389.098 417.087C388.182 418.6 386.898 419.735 385.247 420.491C383.597 421.247 381.671 421.626 379.471 421.626ZM406.84 421.626C403.585 421.626 401.121 420.972 399.448 419.666C397.775 418.359 396.651 416.514 396.078 414.13C395.505 411.746 395.219 408.973 395.219 405.809L395.219 396.663C395.219 393.317 395.516 390.463 396.113 388.102C396.709 385.741 397.843 383.93 399.516 382.669C401.19 381.409 403.631 380.778 406.84 380.778C409.728 380.778 411.963 381.248 413.545 382.188C415.127 383.128 416.215 384.526 416.811 386.383C417.408 388.239 417.705 390.543 417.705 393.294L417.705 395.632L411.035 395.632L411.035 393.225C411.035 391.483 410.92 390.108 410.691 389.099C410.462 388.09 410.049 387.357 409.453 386.898C408.857 386.44 408.009 386.211 406.909 386.211C405.717 386.211 404.8 386.486 404.158 387.036C403.517 387.586 403.092 388.514 402.886 389.821C402.68 391.128 402.577 392.904 402.577 395.15L402.577 407.666C402.577 411.058 402.898 413.328 403.539 414.474C404.181 415.62 405.327 416.193 406.978 416.193C408.215 416.193 409.121 415.907 409.694 415.333C410.267 414.76 410.634 413.947 410.794 412.892C410.954 411.838 411.035 410.646 411.035 409.316L411.035 406.084L417.705 406.084L417.705 408.835C417.705 411.494 417.396 413.786 416.777 415.712C416.158 417.637 415.058 419.104 413.476 420.113C411.895 421.121 409.682 421.626 406.84 421.626ZM429.946 421.626C428.387 421.626 427.172 421.213 426.301 420.388C425.43 419.563 424.823 418.531 424.479 417.293C424.135 416.056 423.963 414.795 423.963 413.511L423.963 381.328L431.321 381.328L431.321 411.311C431.321 412.732 431.527 413.844 431.94 414.646C432.353 415.448 433.201 415.849 434.484 415.849C435.31 415.849 436.169 415.609 437.063 415.127C437.957 414.646 438.817 414.061 439.642 413.374L439.642 381.328L447 381.328L447 421.076L439.642 421.076L439.642 417.156C438.358 418.394 436.903 419.448 435.275 420.319C433.648 421.19 431.871 421.626 429.946 421.626Z"/>
</svg>
