<?xml version="1.0" encoding="utf-8" ?>
<svg xmlns="http://www.w3.org/2000/svg" xmlns:xlink="http://www.w3.org/1999/xlink" width="276" height="276">
	<path transform="scale(0.539062 0.539062)" d="M229.944 235.783L235.384 235.883L235.481 236.443C235.543 237.445 235.772 240.41 235.454 241.25C235.355 241.511 235.082 241.667 234.897 241.875L229.906 241.978L229.944 235.783Z"/>
	<path transform="scale(0.539062 0.539062)" d="M229.916 246.135L235.472 246.513L235.403 277.406L229.974 277.606L229.916 246.135Z"/>
	<path transform="scale(0.539062 0.539062)" d="M224.753 246.125L225.745 246.081C226.434 247.234 225.988 250.838 225.976 252.284L225.382 252.176C223.518 251.846 221.136 251.447 219.544 252.828C218.861 253.42 218.473 254.077 218.316 254.97C217.974 256.919 218.196 259.152 218.207 261.144C218.234 266.535 218.542 272.109 218.027 277.473C216.244 277.496 214.394 277.613 212.625 277.384L212.528 276.312L212.491 246.557C214.107 246.56 216.37 246.28 217.858 246.875C218.287 247.898 218.226 249.312 218.307 250.42C220.138 248.233 221.882 246.651 224.753 246.125Z"/>
	<path transform="scale(0.539062 0.539062)" d="M365.457 246.308L367.25 246.196L367.578 246.5C367.794 248.364 367.889 250.135 367.829 252.011C366.008 251.967 363.024 251.552 361.58 252.807C360.795 253.489 360.381 254.305 360.196 255.316C359.81 257.423 360.051 259.934 360.045 262.1L359.945 277.484C358.359 277.53 355.861 277.847 354.39 277.375L354.315 276.625L354.267 246.508C355.756 246.559 358.564 246.223 359.74 247C360.106 248.084 360.152 249.257 360.267 250.39C361.838 248.584 363.256 247.307 365.457 246.308Z"/>
	<path transform="scale(0.539062 0.539062)" d="M320.849 234.125L325.243 234.237L325.229 264.169L325.251 272.643C325.255 274.109 325.488 276.009 324.949 277.375L324.125 277.48L319.737 277.586C319.312 273.937 319.666 269.927 319.69 266.238L319.705 245.462L319.674 238.135C319.649 236.979 319.337 235.339 319.751 234.283L320.849 234.125Z"/>
	<path transform="scale(0.539062 0.539062)" d="M271.014 246.297L271.46 246.235C273.743 245.956 276.102 246.523 277.872 248.023C279.526 249.425 280.472 251.511 280.695 253.625C280.097 254.713 278.454 255.131 277.304 255.545L276.557 253.5L276.273 252.701C275.984 251.94 275.402 250.909 274.633 250.579C273.603 250.139 272.228 250.11 271.227 250.659C270.559 251.024 270.226 251.499 269.983 252.203C269.677 253.088 269.639 253.97 269.969 254.857C270.386 255.978 271.905 257.258 272.78 258.061C275.493 260.549 279.051 263.155 280.535 266.61C281.3 268.393 281.435 271.114 280.665 272.941L280.526 273.25C280.3 273.766 280.085 274.278 279.772 274.75C278.198 277.123 275.557 277.487 272.984 277.945C271.089 278.068 269.154 277.427 267.621 276.333C265.863 275.079 264.403 272.799 264.125 270.628C264.069 270.193 263.948 269.708 264.275 269.368C265.221 268.387 267.288 268.426 268.573 268.296L268.681 268.658C269.183 270.324 269.772 272.76 271.473 273.551C272.867 274.2 274.464 273.867 275.834 273.375C278.253 267.455 271.967 264.534 268.404 261.125C266.84 259.628 265.657 258.039 265.058 255.935C264.442 253.771 264.61 251.424 265.804 249.455C266.968 247.536 268.963 246.82 271.014 246.297Z"/>
	<path transform="scale(0.539062 0.539062)" d="M399.552 246.293L400.277 246.198C402.414 246.031 404.858 246.664 406.471 248.125C407.873 249.396 409.013 251.675 409.119 253.566C408.469 254.782 406.866 255.109 405.589 255.523C405.064 253.869 404.601 251.916 403.375 250.644C402.597 250.302 401.832 250.131 400.976 250.263C399.96 250.42 399.066 250.985 398.537 251.875C398.225 252.4 397.995 253.608 398.104 254.206C398.35 255.556 399.968 256.824 400.9 257.709C403.852 260.512 408.303 263.722 409.375 267.788C409.874 269.682 409.609 272.605 408.565 274.259C406.881 276.929 404.653 277.41 401.772 277.994C400.02 278.07 398.305 277.748 396.774 276.883C394.749 275.741 392.858 272.993 392.375 270.686C392.216 269.926 392.201 269.593 392.625 268.946C394.083 268.499 395.613 268.383 397.122 268.201C397.42 269.979 397.89 272.016 399.323 273.247C400.046 273.869 401.413 273.972 402.319 273.826C402.961 273.723 403.665 273.488 404.011 272.93C407.144 267.882 399.757 264.005 396.805 261.11C395.162 259.499 393.923 257.858 393.396 255.575C392.96 253.686 393.162 251.148 394.232 249.495C395.512 247.518 397.358 246.79 399.552 246.293Z"/>
	<path transform="scale(0.539062 0.539062)" d="M422.28 246.101C424.003 246.192 426.249 246.363 427.704 247.363L427.982 247.564C428.922 248.223 429.473 248.886 429.984 249.925C430.77 251.52 431.271 255.65 430.747 257.375C429.264 257.859 427.6 257.783 426.05 257.843C426.025 256.093 426.085 253.411 425.372 251.803C425.048 251.073 424.398 250.6 423.648 250.363C422.759 250.081 421.286 250.158 420.505 250.714C419.886 251.155 419.587 252.115 419.446 252.822L419.39 253.125C418.908 255.551 419.191 258.346 419.17 260.824C419.143 264.01 418.534 268.579 419.489 271.625C419.797 272.606 420.148 273.195 421.108 273.625C422.21 274.118 423.544 273.89 424.625 273.491C426.09 271.936 425.815 269.202 425.846 267.188C425.838 266.656 425.802 266.365 426.125 265.924C427.634 265.586 429.459 265.871 431.01 265.963C431.019 268.329 430.952 271.818 430.013 273.988C429.308 275.617 427.965 276.708 426.327 277.345C423.908 278.284 420.598 278.321 418.222 277.204L417.963 277.076L417.062 276.594C415.567 275.62 414.604 274.107 414.233 272.372L414.164 272.024L413.998 271.252C413.442 268.102 413.697 264.568 413.697 261.362C413.697 258.588 413.448 255.448 414 252.742C414.269 251.421 414.646 250.148 415.477 249.066C417.292 246.705 419.543 246.448 422.28 246.101Z"/>
	<path transform="scale(0.539062 0.539062)" d="M310.719 234.127L315.146 234.237L315.107 238.135L304.451 238.206L304.475 253.155C307.062 252.885 309.926 253.222 312.541 253.302C312.685 254.565 312.622 255.874 312.623 257.145C309.996 257.369 307.175 257.055 304.528 257.01L304.515 269.625L304.48 277.461L298.662 277.509L298.516 234.252L310.719 234.127Z"/>
	<path transform="scale(0.539062 0.539062)" d="M241.559 246.561L247.173 246.765L247.096 262.866C247.084 265.265 247.029 267.669 247.283 270.058C247.364 270.818 247.404 271.835 247.8 272.5C248.202 273.178 248.818 273.49 249.576 273.638C251.058 273.928 252.945 272.299 254.057 271.495L253.882 246.489L259.45 246.713L259.511 252.209L259.32 277.364L254.5 277.441C253.829 276.814 253.991 276.394 253.937 275.5L253.5 275.178C251.516 276.163 249.927 277.306 247.691 277.735L245.715 278.107C244.833 277.805 243.937 277.464 243.268 276.786C242.327 275.833 242.03 274.418 241.859 273.137C241.46 270.158 241.73 266.862 241.733 263.85L241.559 246.561Z"/>
	<path transform="scale(0.539062 0.539062)" d="M436.062 246.394L441.706 246.533L441.719 262.721C441.722 266.013 441.444 269.51 442.036 272.75C442.395 273.223 442.49 273.392 443.094 273.557C444.78 274.016 446.936 272.451 448.334 271.663L448.214 246.408L453.916 246.584L453.983 252.937L453.937 277.504L448.761 277.415C448.14 276.742 448.256 276.157 448.169 275.261L447.75 275.051C446.014 276.592 442.72 277.97 440.375 278.02C439.322 278.042 438.206 277.531 437.473 276.773C436.917 276.197 436.498 275.392 436.356 274.604C435.748 271.244 436.027 267.497 436.027 264.076L436.062 246.394Z"/>
	<path transform="scale(0.539062 0.539062)" d="M379.273 246.079C381.553 246.221 383.981 246.494 385.756 248.086C389.345 251.303 388.437 257.844 388.808 262.206L376.947 262.335L376.46 262.301C376.521 264.922 375.823 270.537 377.188 272.712C377.568 273.319 378.531 273.713 379.22 273.832C380.275 274.014 381.266 273.889 382.125 273.252C383.035 271 382.999 268.837 383.074 266.455L387.875 266.893L388.386 267.157C388.837 269.392 388.594 271.865 387.456 273.875C386.345 275.836 384.867 276.991 382.7 277.583C380.167 278.275 377.106 278.199 374.819 276.78C372.653 275.435 371.78 273.502 371.302 271.087C370.357 266.313 369.99 252.871 372.784 249.024C374.394 246.807 376.754 246.459 379.273 246.079ZM378.694 250.375C377.832 250.714 377.396 251.041 376.996 251.896C376.084 253.846 376.478 256.988 376.481 259.127L376.91 259.092L380.438 259.079C381.218 259.097 382.553 259.309 383.215 258.875C383.187 256.348 383.188 253.372 382.201 251.024C381.532 250.386 380.657 250.265 379.75 250.238C379.385 250.227 379.049 250.302 378.694 250.375Z"/>
	<path transform="scale(0.539062 0.539062)" d="M196.371 246.312C197.728 246.12 198.909 246.227 200.25 246.456C201.6 246.686 202.75 247.003 203.821 247.915C205.022 248.937 205.791 250.32 206.179 251.842C207.045 255.246 206.676 259.497 206.695 263L207.065 277.442L202.028 277.51C201.685 276.308 201.578 274.996 201.398 273.758C200.438 274.862 199.777 276.051 198.538 276.916C197.287 277.787 195.404 278.237 193.914 277.912C192.31 277.563 190.799 276.4 189.97 275L189.168 273.447C188.466 270.918 188.566 269.087 189.503 266.625C191.487 261.413 196.805 260.027 201.403 257.956L200.186 250.583C198.963 250.391 197.076 250.002 195.996 250.742C194.606 251.694 194.387 254.708 194.151 256.257L188.788 256.127C189.008 253.947 189.354 251.381 190.522 249.464C191.868 247.258 194.035 246.777 196.371 246.312ZM200.29 262.125C198.126 263.123 195.412 264.818 194.61 267.251C194.184 268.545 194.21 270.67 194.91 271.844C195.122 272.2 195.333 272.428 195.703 272.625C196.585 272.991 197.296 273.186 198.217 272.793C199.134 272.401 200.499 271.483 200.81 270.49C201.067 269.666 200.993 268.672 201.02 267.811L201.229 262.375L200.885 262.004L200.29 262.125Z"/>
	<path transform="scale(0.539062 0.539062)" d="M339.252 246.074C340.765 246.168 342.821 246.318 344.146 247.101L344.375 247.242C346.401 248.407 347.436 249.81 348.134 252.015C348.956 254.61 348.741 257.793 348.757 260.5C348.781 264.537 349.493 270.455 347.431 273.996C345.892 276.64 343.83 277.387 341.01 278.004C339.657 278.02 338.47 278.005 337.154 277.644L336.75 277.528C335.923 277.298 335.214 277.039 334.5 276.547C332.042 274.852 331.656 272.503 331.162 269.763L331.081 269.323C330.341 265.171 330.164 252.535 332.708 249.146C334.372 246.928 336.702 246.519 339.252 246.074ZM339.087 250.375C338.171 250.686 337.714 250.945 337.25 251.821C336.843 252.59 336.642 253.389 336.556 254.249C336.281 257.018 336.497 259.987 336.501 262.784C336.505 265.573 336.01 269.438 336.942 272.066C337.211 272.822 337.691 273.268 338.432 273.579C339.116 273.866 339.896 273.827 340.625 273.801C341.392 273.647 341.569 273.654 342.127 273.125C343.474 268.804 343.044 264.087 343.028 259.603C343.018 256.81 343.35 253.632 342.192 251.044C341.531 250.414 340.648 250.321 339.753 250.308C339.423 250.304 339.37 250.324 339.087 250.375Z"/>
	<path transform="scale(0.539062 0.539062)" d="M156.574 234.125L161.749 234.244C162.25 235.284 162.343 236.597 162.596 237.726L164.446 246.284L167.664 260.612L169.326 269.665C170.719 266.234 171.273 262.377 171.991 258.75L175.278 243.847C175.979 240.668 176.411 237.412 177.495 234.334L183.27 234.097L183.95 277.43C182.333 277.686 180.955 277.685 179.328 277.518C178.914 274.805 179.047 272.026 179.055 269.288L179.072 257.625L179.022 251.698C179.031 250.289 179.168 248.876 178.875 247.49C178.306 247.912 178.237 248.588 178.009 249.25C177.132 251.796 176.593 254.371 176.032 257L172.728 271.668C172.338 273.294 172.065 276.001 171.043 277.303C170.279 277.648 169.571 277.677 168.75 277.736C168.547 277.615 168.313 277.536 168.14 277.375C166.776 276.102 163.286 256.489 162.564 253.282C162.142 251.41 161.355 249.52 160.693 247.716L159.931 277.441C158.363 277.691 156.873 277.652 155.293 277.598L155.888 236.918C155.942 235.786 155.717 234.902 156.574 234.125Z"/>
	<path transform="scale(0.539062 0.539062)" d="M62.2832 278.215L90.0556 278.47C92.3883 278.563 93.0655 279.322 94.5405 280.948C95.6505 281.365 97.2237 281.257 98.4244 281.305L111.257 281.225C111.938 280.41 112.642 279.415 113.666 279.03L113.978 278.924C115.998 278.204 118.664 278.514 120.817 278.509L133.4 278.505C137.04 278.49 140.532 278.118 144.196 278.404C144.28 280.987 144.337 283.567 143.5 286.043C143.078 286.824 142.619 287.465 141.987 288.096C140.388 289.693 138.115 289.979 135.962 290.003L89.209 290.027L75.1757 290.025C72.7428 290.024 70.0844 290.227 67.683 289.886C66.1091 289.663 64.7595 288.715 63.6813 287.582C61.6429 285.44 62.2622 280.97 62.2832 278.215Z"/>
	<path transform="scale(0.539062 0.539062)" d="M70.1079 221.777L109.633 221.681L127.036 221.683C129.869 221.685 134.403 221.139 137.016 222.205L137.375 222.366C138.088 222.671 138.653 222.962 139.208 223.523C140.046 224.37 140.384 225.327 140.568 226.485C141.435 231.933 140.933 238.14 140.93 243.672L140.974 276.111L134.592 276.027L118.846 275.996C116.538 275.996 113.715 275.694 111.47 276.139C110.336 276.363 109.492 277.179 108.403 277.472C106.023 278.111 102.688 277.75 100.227 277.723C99.0538 277.71 97.4253 277.837 96.4192 277.16C95.6484 276.642 94.9178 276.247 93.9825 276.095C91.2122 275.645 87.8133 275.992 84.9832 275.989C78.4544 275.982 71.7609 275.686 65.2603 276.316L65.4039 246.968L65.4346 231.794C65.4463 229.997 65.1265 226.929 65.822 225.294C66.7181 223.188 68.0784 222.488 70.1079 221.777ZM102.037 228.868L72.7681 228.98L72.7928 269.474C77.327 270.037 82.1193 269.694 86.69 269.697L105.063 269.704L133.068 269.666L133.277 228.926L102.037 228.868Z"/>
	<path transform="scale(0.539062 0.539062)" d="M91.4577 232.875C92.6112 232.798 93.8401 233.04 94.875 233.556C96.0765 234.155 96.8422 235.448 97.216 236.694C97.9692 239.203 94.8198 241.58 93.343 243.259C92.348 244.39 91.4167 245.666 90.7136 247C89.0486 250.159 90.9608 253.357 93.2565 255.625C94.8458 257.195 96.5263 258.136 97.1673 260.421C97.5042 261.622 97.4558 262.689 96.7575 263.767C95.7445 265.33 94.8382 265.89 93.0552 266.335C92.4902 266.313 91.933 266.282 91.3794 266.157C90.1796 265.886 89.2625 265.134 88.6748 264.056C87.4217 261.757 88.3486 259.387 88.9537 257.047C88.5774 256.28 87.3537 254.77 86.5667 254.449C85.4862 254.009 84.3437 253.998 83.2736 253.403C82.1361 252.772 81.3606 251.772 81.0825 250.493C80.8262 249.314 81.0196 248.209 81.6733 247.195C82.6957 245.608 85.4545 245.224 87.1353 244.789C87.5682 243.984 88.8785 241.956 88.877 241.089C88.8762 240.639 88.5191 239.84 88.4048 239.375C88.0822 238.064 87.963 236.381 88.5435 235.125C89.1124 233.894 90.2239 233.277 91.4577 232.875Z"/>
	<path transform="scale(0.539062 0.539062)" d="M102.863 232.339C103.443 232.379 104.162 232.383 104.707 232.588C106.351 233.207 107.5 235.543 108.209 237.043C107.331 238.551 106.353 239.898 105.271 241.266C106.955 242.16 108.991 243.212 109.977 244.908C111.102 246.843 111.656 249.045 111.017 251.25C110.079 254.486 107.774 255.835 105.011 257.417C106.356 258.539 107.379 259.756 108.446 261.141C108.899 260.338 109.346 259.438 109.945 258.735C112.123 256.181 114.883 254.454 116.037 251.102C117.471 246.942 112.325 243.01 110.086 240.146C109.444 239.324 109.006 238.366 108.568 237.425C109.388 235.752 110.015 234.5 111.526 233.295C112.412 232.588 113.365 232.353 114.481 232.573C115.666 232.807 117.347 233.968 117.927 235.032C119.033 237.059 117.996 239.042 117.311 241.02C117.71 242.063 118.066 243.265 118.789 244.129L119.125 244.514C121.084 245.457 123.956 245.721 124.957 247.931C125.439 248.996 125.322 250.269 124.855 251.311C124.088 253.024 122.885 253.455 121.25 253.992C119.462 254.58 118.682 255.141 117.854 256.879C117.213 258.224 118.214 260.188 118.664 261.5C118.099 263.339 117.517 264.873 115.698 265.836C114.529 266.455 113.087 266.386 111.875 265.93C109.945 265.203 109.255 263.08 108.468 261.361C108.051 262.475 107.656 263.649 106.922 264.603C106.15 265.607 105.011 266.336 103.737 266.474C102.362 266.623 101.331 266.535 100.254 265.587C99.2295 264.684 98.55 263.251 98.4824 261.893C98.3969 260.172 99.5969 258.718 100.704 257.518L100.932 257.275C99.1554 256.151 97.4642 255.005 96.3455 253.161C95.2085 251.287 95.0588 248.776 95.684 246.722C96.3984 244.376 98.3982 242.727 100.493 241.648L100.92 241.431C99.9347 240.043 99.1301 238.683 98.3841 237.153C98.6945 236.237 99.0386 235.329 99.5666 234.513C100.525 233.031 101.162 232.684 102.863 232.339Z"/>
</svg>
