<?xml version="1.0" encoding="utf-8" ?>
<svg xmlns="http://www.w3.org/2000/svg" xmlns:xlink="http://www.w3.org/1999/xlink" width="276" height="276">
	<path fill="#7014F2" transform="scale(0.539062 0.539062)" d="M0 0L0 512L512 512L512 0L0 0Z"/>
	<path fill="#00F59B" transform="scale(0.539062 0.539062)" d="M105.406 92.3317C102.927 92.2572 75.087 92.2873 74.9493 92.3552C74.7392 92.4587 73.3672 94.4693 72.8438 94.8992C72.4465 95.022 71.97 94.997 71.5567 94.9988L56.1512 94.9938C53.0845 94.9575 54.2728 94.0408 52.7127 92.3855L10.1752 92.364L10.161 26.2818C10.1645 23.3269 10.0709 20.2005 12.2016 17.8377C13.8711 15.9864 16.6835 14.9834 19.1351 14.8659L20.0948 14.8272L105.442 14.8253C106.561 14.8257 107.733 14.7661 108.844 14.8828C116.378 15.6743 117.802 19.877 117.806 26.3798L117.82 91.0853C117.821 91.321 117.89 92.197 117.782 92.3245L105.406 92.3317ZM20.9432 25.4387L21.0233 83.369L106.656 83.3675L106.899 25.427L20.9432 25.4387Z"/>
	<path fill="#00F59B" transform="scale(0.539062 0.539062)" d="M65.1667 79.0373C56.2653 80.1405 54.3053 67.3962 62.2045 65.7275C60.6037 65.5893 59.1272 64.9235 57.804 64.0312C49.5035 58.4338 52.052 44.7632 61.5793 43.0162C54.8837 40.7875 56.5213 30.972 63.6065 30.3388C67.115 30.0205 70.2375 32.918 70.653 36.3032C70.9975 39.11 69.0168 42.4657 66.0915 42.8085C67.8097 43.1782 69.3577 43.7415 70.802 44.7655C75.8312 48.3317 77.3692 56.157 73.6907 61.2088C71.745 63.8813 69.0507 65.3083 65.804 65.8063C72.4527 66.932 72.489 77.6175 65.1667 79.0373Z"/>
	<path fill="#00F59B" transform="scale(0.539062 0.539062)" d="M82.0692 77.9333C77.9117 80.0667 72.745 77.0782 72.214 72.5157C71.9385 70.1518 72.9375 67.473 74.8475 66.0367C76.6065 64.714 76.6633 65.069 78.157 63.2575L80.194 60.7608C84.502 55.2165 82.3743 51.6347 78.596 46.659C76.867 44.382 76.831 44.6782 74.6573 42.9935C69.6663 39.1255 72.5263 31.3092 78.4737 30.6497C85.1155 30.3197 88.0662 37.5598 83.8988 42.2677C84.4617 43.2433 86.8 48.03 87.3263 48.3588C87.615 48.539 88.4415 48.496 88.7853 48.5168C93.9862 48.8278 97.3637 53.2467 94.733 58.1608C92.9347 61.5198 90.5938 60.7295 87.9375 61.5493C86.6873 61.935 84.66 65.6947 84.0037 66.9202L84.9617 68.41C86.8475 71.8902 85.5558 76.0867 82.0692 77.9333Z"/>
	<path fill="#00F59B" transform="scale(0.539062 0.539062)" d="M47.0538 78.3985C42.3588 76.688 40.7602 71.2218 43.8795 67.1637C44.2692 66.6568 44.172 66.6895 43.8715 66.155C39.686 58.7152 38.4813 63.015 34.6545 59.9057C32.073 57.8085 31.5247 53.5378 33.6823 50.924C35.5588 48.6508 38.212 48.599 40.9123 48.3575L44.267 42.1778C40.495 38.482 42.666 31.714 47.9688 30.8305C51.765 30.498 55.3867 32.9372 55.9123 36.8597C56.178 38.8438 55.3605 41.3272 53.8982 42.6992C52.9853 43.5558 51.7915 44.0435 50.894 44.9143C50.3188 45.4727 49.838 46.155 49.354 46.7927C44.6482 52.9933 44.2067 55.988 48.796 61.8595C50.5095 64.0517 50.9327 64.4467 53.0938 65.9627C58.8125 69.9745 55.0485 80.5175 47.0538 78.3985Z"/>
	<path fill="#00F59B" transform="scale(0.539062 0.539062)" d="M121.252 107.528C119.609 110.434 116.867 112.303 113.444 112.326L16.7737 112.334C15.709 112.334 14.542 112.42 13.4896 112.289C9.5221 111.796 6.25657 108.332 5.78753 104.385C5.64785 103.209 5.74567 101.935 5.74632 100.749L5.75035 95.5473L47.4405 95.5752C50.067 95.5875 49.7765 95.9285 50.9333 98.536C51.535 99.893 51.3828 99.4428 52.975 99.4428L75.9665 99.4433C76.6955 99.1155 77.8445 95.5763 78.291 95.575L122.369 95.5667L122.364 101.261C122.361 103.614 122.392 105.362 121.252 107.528Z"/>
	<path fill="#00F59B" transform="scale(0.539062 0.539062)" d="M150.594 35.6683C153.073 35.7428 180.913 35.7127 181.051 35.6448C181.261 35.5413 182.633 33.5307 183.156 33.1008C183.553 32.978 184.03 33.003 184.443 33.0012L199.849 33.0062C202.916 33.0425 201.727 33.9592 203.287 35.6145L245.825 35.636L245.839 101.718C245.836 104.673 245.929 107.799 243.798 110.162C242.129 112.014 239.317 113.017 236.865 113.134L235.905 113.173L150.558 113.175C149.44 113.174 148.267 113.234 147.156 113.117C139.622 112.326 138.198 108.123 138.194 101.62L138.18 36.9147C138.179 36.679 138.11 35.803 138.218 35.6755L150.594 35.6683ZM235.057 102.561L234.977 44.631L149.344 44.6325L149.101 102.573L235.057 102.561Z"/>
	<path fill="#00F59B" transform="scale(0.539062 0.539062)" d="M190.833 48.9627C199.735 47.8595 201.695 60.6038 193.796 62.2725C195.396 62.4107 196.873 63.0765 198.196 63.9688C206.496 69.5662 203.948 83.2368 194.421 84.9838C201.116 87.2125 199.479 97.028 192.394 97.6612C188.885 97.9795 185.762 95.082 185.347 91.6968C185.002 88.89 186.983 85.5343 189.909 85.1915C188.19 84.8218 186.642 84.2585 185.198 83.2345C180.169 79.6683 178.631 71.843 182.309 66.7912C184.255 64.1188 186.949 62.6917 190.196 62.1937C183.547 61.068 183.511 50.3825 190.833 48.9627Z"/>
	<path fill="#00F59B" transform="scale(0.539062 0.539062)" d="M173.931 50.0667C178.088 47.9333 183.255 50.9218 183.786 55.4843C184.061 57.8482 183.062 60.527 181.153 61.9633C179.394 63.286 179.337 62.931 177.843 64.7425L175.806 67.2392C171.498 72.7835 173.626 76.3653 177.404 81.341C179.133 83.618 179.169 83.3218 181.343 85.0065C186.334 88.8745 183.474 96.6908 177.526 97.3503C170.885 97.6803 167.934 90.4402 172.101 85.7322C171.538 84.7567 169.2 79.97 168.674 79.6412C168.385 79.461 167.559 79.504 167.215 79.4832C162.014 79.1722 158.636 74.7533 161.267 69.8392C163.065 66.4802 165.406 67.2705 168.062 66.4507C169.313 66.065 171.34 62.3053 171.996 61.0798L171.038 59.59C169.153 56.1098 170.444 51.9133 173.931 50.0667Z"/>
	<path fill="#00F59B" transform="scale(0.539062 0.539062)" d="M208.946 49.6015C213.641 51.312 215.24 56.7782 212.12 60.8363C211.731 61.3432 211.828 61.3105 212.129 61.845C216.314 69.2848 217.519 64.985 221.346 68.0943C223.927 70.1915 224.475 74.4622 222.318 77.076C220.441 79.3492 217.788 79.401 215.088 79.6425L211.733 85.8222C215.505 89.518 213.334 96.286 208.031 97.1695C204.235 97.502 200.613 95.0627 200.088 91.1403C199.822 89.1562 200.639 86.6728 202.102 85.3007C203.015 84.4442 204.209 83.9565 205.106 83.0857C205.681 82.5273 206.162 81.845 206.646 81.2073C211.352 75.0067 211.793 72.012 207.204 66.1405C205.49 63.9483 205.067 63.5533 202.906 62.0373C197.188 58.0255 200.952 47.4825 208.946 49.6015Z"/>
	<path fill="#00F59B" transform="scale(0.539062 0.539062)" d="M134.748 20.4718C136.391 17.5662 139.133 15.697 142.556 15.6745L239.226 15.6665C240.291 15.6665 241.458 15.5798 242.51 15.7108C246.478 16.204 249.743 19.6677 250.212 23.6155C250.352 24.791 250.254 26.0653 250.254 27.2512L250.25 32.4527L208.56 32.4248C205.933 32.4125 206.224 32.0715 205.067 29.464C204.465 28.107 204.617 28.5572 203.025 28.5572L180.034 28.5567C179.304 28.8845 178.156 32.4237 177.709 32.425L133.631 32.4333L133.636 26.7392C133.639 24.386 133.608 22.6377 134.748 20.4718Z"/>
	<path fill="#00F59B" transform="scale(0.539062 0.539062)" d="M361.406 92.3317C358.927 92.2572 331.087 92.2873 330.949 92.3552C330.739 92.4587 329.367 94.4693 328.844 94.8992C328.447 95.022 327.97 94.997 327.557 94.9988L312.151 94.9938C309.084 94.9575 310.273 94.0408 308.713 92.3855L266.175 92.364L266.161 26.2818C266.164 23.3269 266.071 20.2005 268.202 17.8377C269.871 15.9864 272.683 14.9834 275.135 14.8659L276.095 14.8272L361.442 14.8253C362.561 14.8257 363.733 14.7661 364.844 14.8828C372.378 15.6743 373.802 19.877 373.806 26.3798L373.82 91.0853C373.821 91.321 373.89 92.197 373.782 92.3245L361.406 92.3317ZM276.943 25.4387L277.023 83.369L362.656 83.3675L362.899 25.427L276.943 25.4387Z"/>
	<path fill="#00F59B" transform="scale(0.539062 0.539062)" d="M321.167 79.0373C312.265 80.1405 310.305 67.3962 318.204 65.7275C316.604 65.5893 315.127 64.9235 313.804 64.0312C305.504 58.4338 308.052 44.7632 317.579 43.0162C310.884 40.7875 312.521 30.972 319.606 30.3388C323.115 30.0205 326.238 32.918 326.653 36.3032C326.998 39.11 325.017 42.4657 322.091 42.8085C323.81 43.1782 325.358 43.7415 326.802 44.7655C331.831 48.3317 333.369 56.157 329.691 61.2088C327.745 63.8813 325.051 65.3083 321.804 65.8063C328.453 66.932 328.489 77.6175 321.167 79.0373Z"/>
	<path fill="#00F59B" transform="scale(0.539062 0.539062)" d="M338.069 77.9333C333.912 80.0667 328.745 77.0782 328.214 72.5157C327.938 70.1518 328.938 67.473 330.847 66.0367C332.606 64.714 332.663 65.069 334.157 63.2575L336.194 60.7608C340.502 55.2165 338.374 51.6347 334.596 46.659C332.867 44.382 332.831 44.6782 330.657 42.9935C325.666 39.1255 328.526 31.3092 334.474 30.6497C341.115 30.3197 344.066 37.5598 339.899 42.2677C340.462 43.2433 342.8 48.03 343.326 48.3588C343.615 48.539 344.442 48.496 344.785 48.5168C349.986 48.8278 353.364 53.2467 350.733 58.1608C348.935 61.5198 346.594 60.7295 343.938 61.5493C342.687 61.935 340.66 65.6947 340.004 66.9202L340.962 68.41C342.847 71.8902 341.556 76.0867 338.069 77.9333Z"/>
	<path fill="#00F59B" transform="scale(0.539062 0.539062)" d="M303.054 78.3985C298.359 76.688 296.76 71.2218 299.88 67.1637C300.269 66.6568 300.172 66.6895 299.871 66.155C295.686 58.7152 294.481 63.015 290.654 59.9057C288.073 57.8085 287.525 53.5378 289.682 50.924C291.559 48.6508 294.212 48.599 296.912 48.3575L300.267 42.1778C296.495 38.482 298.666 31.714 303.969 30.8305C307.765 30.498 311.387 32.9372 311.912 36.8597C312.178 38.8438 311.361 41.3272 309.898 42.6992C308.985 43.5558 307.791 44.0435 306.894 44.9143C306.319 45.4727 305.838 46.155 305.354 46.7927C300.648 52.9933 300.207 55.988 304.796 61.8595C306.51 64.0517 306.933 64.4467 309.094 65.9627C314.812 69.9745 311.048 80.5175 303.054 78.3985Z"/>
	<path fill="#00F59B" transform="scale(0.539062 0.539062)" d="M377.252 107.528C375.609 110.434 372.867 112.303 369.444 112.326L272.774 112.334C271.709 112.334 270.542 112.42 269.49 112.289C265.522 111.796 262.257 108.332 261.788 104.385C261.648 103.209 261.746 101.935 261.746 100.749L261.75 95.5473L303.44 95.5752C306.067 95.5875 305.776 95.9285 306.933 98.536C307.535 99.893 307.383 99.4428 308.975 99.4428L331.966 99.4433C332.695 99.1155 333.844 95.5763 334.291 95.575L378.369 95.5667L378.364 101.261C378.361 103.614 378.392 105.362 377.252 107.528Z"/>
	<path fill="#00F59B" transform="scale(0.539062 0.539062)" d="M406.594 35.6683C409.074 35.7428 436.913 35.7127 437.051 35.6448C437.261 35.5413 438.633 33.5307 439.156 33.1008C439.553 32.978 440.03 33.003 440.443 33.0012L455.849 33.0062C458.916 33.0425 457.727 33.9592 459.287 35.6145L501.825 35.636L501.839 101.718C501.836 104.673 501.929 107.799 499.798 110.162C498.129 112.014 495.317 113.017 492.865 113.134L491.905 113.173L406.558 113.175C405.44 113.174 404.267 113.234 403.156 113.117C395.622 112.326 394.198 108.123 394.194 101.62L394.18 36.9147C394.179 36.679 394.11 35.803 394.218 35.6755L406.594 35.6683ZM491.057 102.561L490.977 44.631L405.344 44.6325L405.101 102.573L491.057 102.561Z"/>
	<path fill="#00F59B" transform="scale(0.539062 0.539062)" d="M446.833 48.9627C455.735 47.8595 457.695 60.6038 449.796 62.2725C451.396 62.4107 452.873 63.0765 454.196 63.9688C462.496 69.5662 459.948 83.2368 450.421 84.9838C457.116 87.2125 455.479 97.028 448.394 97.6612C444.885 97.9795 441.762 95.082 441.347 91.6968C441.002 88.89 442.983 85.5343 445.909 85.1915C444.19 84.8218 442.642 84.2585 441.198 83.2345C436.169 79.6683 434.631 71.843 438.309 66.7912C440.255 64.1188 442.949 62.6917 446.196 62.1937C439.547 61.068 439.511 50.3825 446.833 48.9627Z"/>
	<path fill="#00F59B" transform="scale(0.539062 0.539062)" d="M429.931 50.0667C434.088 47.9333 439.255 50.9218 439.786 55.4843C440.062 57.8482 439.062 60.527 437.153 61.9633C435.394 63.286 435.337 62.931 433.843 64.7425L431.806 67.2392C427.498 72.7835 429.626 76.3653 433.404 81.341C435.133 83.618 435.169 83.3218 437.343 85.0065C442.334 88.8745 439.474 96.6908 433.526 97.3503C426.885 97.6803 423.934 90.4402 428.101 85.7322C427.538 84.7567 425.2 79.97 424.674 79.6412C424.385 79.461 423.558 79.504 423.215 79.4832C418.014 79.1722 414.636 74.7533 417.267 69.8392C419.065 66.4802 421.406 67.2705 424.062 66.4507C425.313 66.065 427.34 62.3053 427.996 61.0798L427.038 59.59C425.153 56.1098 426.444 51.9133 429.931 50.0667Z"/>
	<path fill="#00F59B" transform="scale(0.539062 0.539062)" d="M464.946 49.6015C469.641 51.312 471.24 56.7782 468.12 60.8363C467.731 61.3432 467.828 61.3105 468.129 61.845C472.314 69.2848 473.519 64.985 477.346 68.0943C479.927 70.1915 480.475 74.4622 478.318 77.076C476.441 79.3492 473.788 79.401 471.088 79.6425L467.733 85.8222C471.505 89.518 469.334 96.286 464.031 97.1695C460.235 97.502 456.613 95.0627 456.088 91.1403C455.822 89.1562 456.639 86.6728 458.102 85.3007C459.015 84.4442 460.209 83.9565 461.106 83.0857C461.681 82.5273 462.162 81.845 462.646 81.2073C467.352 75.0067 467.793 72.012 463.204 66.1405C461.49 63.9483 461.067 63.5533 458.906 62.0373C453.188 58.0255 456.952 47.4825 464.946 49.6015Z"/>
	<path fill="#00F59B" transform="scale(0.539062 0.539062)" d="M390.748 20.4718C392.391 17.5662 395.134 15.697 398.556 15.6745L495.226 15.6665C496.291 15.6665 497.458 15.5798 498.51 15.7108C502.478 16.204 505.743 19.6677 506.212 23.6155C506.352 24.791 506.254 26.0653 506.254 27.2512L506.25 32.4527L464.56 32.4248C461.933 32.4125 462.224 32.0715 461.067 29.464C460.465 28.107 460.617 28.5572 459.025 28.5572L436.034 28.5567C435.305 28.8845 434.156 32.4237 433.709 32.425L389.631 32.4333L389.636 26.7392C389.639 24.386 389.608 22.6377 390.748 20.4718Z"/>
	<path fill="#00F59B" transform="scale(0.539062 0.539062)" d="M-41.4062 163.668C-38.9265 163.743 -11.087 163.713 -10.9493 163.645C-10.7392 163.541 -9.3672 161.531 -8.8438 161.101C-8.4465 160.978 -7.97 161.003 -7.5567 161.001L7.8487 161.006C10.9155 161.042 9.7272 161.959 11.2873 163.614L53.825 163.636L53.839 229.718C53.836 232.673 53.929 235.799 51.798 238.162C50.129 240.014 47.317 241.017 44.865 241.134L43.905 241.173L-41.4423 241.175C-42.5605 241.174 -43.7325 241.234 -44.8438 241.117C-52.378 240.326 -53.8017 236.123 -53.8063 229.62L-53.8195 164.915C-53.8208 164.679 -53.8902 163.803 -53.7823 163.675L-41.4062 163.668ZM43.057 230.561L42.977 172.631L-42.6562 172.632L-42.8988 230.573L43.057 230.561Z"/>
	<path fill="#00F59B" transform="scale(0.539062 0.539062)" d="M-1.1667 176.963C7.7347 175.859 9.6947 188.604 1.7955 190.273C3.3963 190.411 4.8727 191.077 6.196 191.969C14.4965 197.566 11.948 211.237 2.4207 212.984C9.1163 215.213 7.4787 225.028 0.3935 225.661C-3.115 225.98 -6.2375 223.082 -6.653 219.697C-6.9975 216.89 -5.0168 213.534 -2.0915 213.192C-3.8097 212.822 -5.3577 212.258 -6.802 211.234C-11.8312 207.668 -13.3692 199.843 -9.6907 194.791C-7.745 192.119 -5.0507 190.692 -1.804 190.194C-8.4527 189.068 -8.489 178.382 -1.1667 176.963Z"/>
	<path fill="#00F59B" transform="scale(0.539062 0.539062)" d="M16.9462 177.601C21.6412 179.312 23.2398 184.778 20.1205 188.836C19.7308 189.343 19.828 189.31 20.1285 189.845C24.314 197.285 25.5187 192.985 29.3455 196.094C31.927 198.192 32.4753 202.462 30.3177 205.076C28.4412 207.349 25.788 207.401 23.0877 207.642L19.733 213.822C23.505 217.518 21.334 224.286 16.0312 225.169C12.235 225.502 8.6132 223.063 8.0877 219.14C7.822 217.156 8.6395 214.673 10.1018 213.301C11.0147 212.444 12.2085 211.957 13.106 211.086C13.6813 210.527 14.162 209.845 14.646 209.207C19.3518 203.007 19.7933 200.012 15.204 194.141C13.4905 191.948 13.0673 191.553 10.9062 190.037C5.1875 186.025 8.9515 175.483 16.9462 177.601Z"/>
	<path fill="#00F59B" transform="scale(0.539062 0.539062)" d="M-57.2518 148.472C-55.609 145.566 -52.8665 143.697 -49.444 143.674L47.226 143.666C48.291 143.666 49.458 143.58 50.51 143.711C54.478 144.204 57.743 147.668 58.212 151.615C58.352 152.791 58.254 154.065 58.254 155.251L58.25 160.453L16.5595 160.425C13.933 160.412 14.2235 160.072 13.0667 157.464C12.465 156.107 12.6172 156.557 11.025 156.557L-11.9665 156.557C-12.6955 156.885 -13.8445 160.424 -14.291 160.425L-58.3693 160.433L-58.3642 154.739C-58.3605 152.386 -58.3922 150.638 -57.2518 148.472Z"/>
	<path fill="#00F59B" transform="scale(0.539062 0.539062)" d="M169.406 220.332C166.927 220.257 139.087 220.287 138.949 220.355C138.739 220.459 137.367 222.469 136.844 222.899C136.447 223.022 135.97 222.997 135.557 222.999L120.151 222.994C117.084 222.957 118.273 222.041 116.713 220.385L74.1752 220.364L74.161 154.282C74.1645 151.327 74.0709 148.201 76.2016 145.838C77.8711 143.986 80.6835 142.983 83.1351 142.866L84.0948 142.827L169.442 142.825C170.561 142.826 171.733 142.766 172.844 142.883C180.378 143.674 181.802 147.877 181.806 154.38L181.82 219.085C181.821 219.321 181.89 220.197 181.782 220.325L169.406 220.332ZM84.9432 153.439L85.0233 211.369L170.656 211.368L170.899 153.427L84.9432 153.439Z"/>
	<path fill="#00F59B" transform="scale(0.539062 0.539062)" d="M129.167 207.037C120.265 208.141 118.305 195.396 126.204 193.728C124.604 193.589 123.127 192.923 121.804 192.031C113.504 186.434 116.052 172.763 125.579 171.016C118.884 168.787 120.521 158.972 127.606 158.339C131.115 158.02 134.238 160.918 134.653 164.303C134.998 167.11 133.017 170.466 130.091 170.809C131.81 171.178 133.358 171.742 134.802 172.766C139.831 176.332 141.369 184.157 137.691 189.209C135.745 191.881 133.051 193.308 129.804 193.806C136.453 194.932 136.489 205.618 129.167 207.037Z"/>
	<path fill="#00F59B" transform="scale(0.539062 0.539062)" d="M146.069 205.933C141.912 208.067 136.745 205.078 136.214 200.516C135.939 198.152 136.938 195.473 138.847 194.037C140.606 192.714 140.663 193.069 142.157 191.257L144.194 188.761C148.502 183.216 146.374 179.635 142.596 174.659C140.867 172.382 140.831 172.678 138.657 170.993C133.666 167.125 136.526 159.309 142.474 158.65C149.115 158.32 152.066 165.56 147.899 170.268C148.462 171.243 150.8 176.03 151.326 176.359C151.615 176.539 152.442 176.496 152.785 176.517C157.986 176.828 161.364 181.247 158.733 186.161C156.935 189.52 154.594 188.73 151.938 189.549C150.687 189.935 148.66 193.695 148.004 194.92L148.962 196.41C150.847 199.89 149.556 204.087 146.069 205.933Z"/>
	<path fill="#00F59B" transform="scale(0.539062 0.539062)" d="M111.054 206.399C106.359 204.688 104.76 199.222 107.88 195.164C108.269 194.657 108.172 194.69 107.871 194.155C103.686 186.715 102.481 191.015 98.6545 187.906C96.073 185.809 95.5247 181.538 97.6823 178.924C99.5588 176.651 102.212 176.599 104.912 176.358L108.267 170.178C104.495 166.482 106.666 159.714 111.969 158.831C115.765 158.498 119.387 160.937 119.912 164.86C120.178 166.844 119.361 169.327 117.898 170.699C116.985 171.556 115.791 172.043 114.894 172.914C114.319 173.473 113.838 174.155 113.354 174.793C108.648 180.993 108.207 183.988 112.796 189.859C114.51 192.052 114.933 192.447 117.094 193.963C122.812 197.975 119.048 208.517 111.054 206.399Z"/>
	<path fill="#00F59B" transform="scale(0.539062 0.539062)" d="M185.252 235.528C183.609 238.434 180.867 240.303 177.444 240.326L80.7737 240.334C79.709 240.334 78.542 240.42 77.4896 240.289C73.5221 239.796 70.2566 236.332 69.7875 232.385C69.6479 231.209 69.7457 229.935 69.7463 228.749L69.7503 223.547L111.441 223.575C114.067 223.588 113.776 223.928 114.933 226.536C115.535 227.893 115.383 227.443 116.975 227.443L139.966 227.443C140.695 227.115 141.844 223.576 142.291 223.575L186.369 223.567L186.364 229.261C186.361 231.614 186.392 233.362 185.252 235.528Z"/>
	<path fill="#00F59B" transform="scale(0.539062 0.539062)" d="M214.594 163.668C217.073 163.743 244.913 163.713 245.051 163.645C245.261 163.541 246.633 161.531 247.156 161.101C247.553 160.978 248.03 161.003 248.443 161.001L263.849 161.006C266.916 161.042 265.727 161.959 267.287 163.614L309.825 163.636L309.839 229.718C309.836 232.673 309.929 235.799 307.798 238.162C306.129 240.014 303.317 241.017 300.865 241.134L299.905 241.173L214.558 241.175C213.44 241.174 212.267 241.234 211.156 241.117C203.622 240.326 202.198 236.123 202.194 229.62L202.18 164.915C202.179 164.679 202.11 163.803 202.218 163.675L214.594 163.668ZM299.057 230.561L298.977 172.631L213.344 172.632L213.101 230.573L299.057 230.561Z"/>
	<path fill="#00F59B" transform="scale(0.539062 0.539062)" d="M254.833 176.963C263.735 175.859 265.695 188.604 257.796 190.273C259.396 190.411 260.873 191.077 262.196 191.969C270.496 197.566 267.948 211.237 258.421 212.984C265.116 215.213 263.479 225.028 256.394 225.661C252.885 225.98 249.762 223.082 249.347 219.697C249.002 216.89 250.983 213.534 253.909 213.192C252.19 212.822 250.642 212.258 249.198 211.234C244.169 207.668 242.631 199.843 246.309 194.791C248.255 192.119 250.949 190.692 254.196 190.194C247.547 189.068 247.511 178.382 254.833 176.963Z"/>
	<path fill="#00F59B" transform="scale(0.539062 0.539062)" d="M237.931 178.067C242.088 175.933 247.255 178.922 247.786 183.484C248.061 185.848 247.062 188.527 245.153 189.963C243.394 191.286 243.337 190.931 241.843 192.743L239.806 195.239C235.498 200.784 237.626 204.365 241.404 209.341C243.133 211.618 243.169 211.322 245.343 213.007C250.334 216.875 247.474 224.691 241.526 225.35C234.885 225.68 231.934 218.44 236.101 213.732C235.538 212.757 233.2 207.97 232.674 207.641C232.385 207.461 231.559 207.504 231.215 207.483C226.014 207.172 222.636 202.753 225.267 197.839C227.065 194.48 229.406 195.27 232.062 194.451C233.313 194.065 235.34 190.305 235.996 189.08L235.038 187.59C233.153 184.11 234.444 179.913 237.931 178.067Z"/>
	<path fill="#00F59B" transform="scale(0.539062 0.539062)" d="M272.946 177.601C277.641 179.312 279.24 184.778 276.12 188.836C275.731 189.343 275.828 189.31 276.129 189.845C280.314 197.285 281.519 192.985 285.346 196.094C287.927 198.192 288.475 202.462 286.318 205.076C284.441 207.349 281.788 207.401 279.088 207.642L275.733 213.822C279.505 217.518 277.334 224.286 272.031 225.169C268.235 225.502 264.613 223.063 264.088 219.14C263.822 217.156 264.639 214.673 266.102 213.301C267.015 212.444 268.209 211.957 269.106 211.086C269.681 210.527 270.162 209.845 270.646 209.207C275.352 203.007 275.793 200.012 271.204 194.141C269.49 191.948 269.067 191.553 266.906 190.037C261.188 186.025 264.952 175.483 272.946 177.601Z"/>
	<path fill="#00F59B" transform="scale(0.539062 0.539062)" d="M198.748 148.472C200.391 145.566 203.133 143.697 206.556 143.674L303.226 143.666C304.291 143.666 305.458 143.58 306.51 143.711C310.478 144.204 313.743 147.668 314.212 151.615C314.352 152.791 314.254 154.065 314.254 155.251L314.25 160.453L272.56 160.425C269.933 160.412 270.224 160.072 269.067 157.464C268.465 156.107 268.617 156.557 267.025 156.557L244.034 156.557C243.304 156.885 242.156 160.424 241.709 160.425L197.631 160.433L197.636 154.739C197.639 152.386 197.608 150.638 198.748 148.472Z"/>
	<path fill="#00F59B" transform="scale(0.539062 0.539062)" d="M425.406 220.332C422.927 220.257 395.087 220.287 394.949 220.355C394.739 220.459 393.367 222.469 392.844 222.899C392.447 223.022 391.97 222.997 391.557 222.999L376.151 222.994C373.084 222.957 374.273 222.041 372.713 220.385L330.175 220.364L330.161 154.282C330.164 151.327 330.071 148.201 332.202 145.838C333.871 143.986 336.683 142.983 339.135 142.866L340.095 142.827L425.442 142.825C426.561 142.826 427.733 142.766 428.844 142.883C436.378 143.674 437.802 147.877 437.806 154.38L437.82 219.085C437.821 219.321 437.89 220.197 437.782 220.325L425.406 220.332ZM340.943 153.439L341.023 211.369L426.656 211.368L426.899 153.427L340.943 153.439Z"/>
	<path fill="#00F59B" transform="scale(0.539062 0.539062)" d="M385.167 207.037C376.265 208.141 374.305 195.396 382.204 193.728C380.604 193.589 379.127 192.923 377.804 192.031C369.504 186.434 372.052 172.763 381.579 171.016C374.884 168.787 376.521 158.972 383.606 158.339C387.115 158.02 390.238 160.918 390.653 164.303C390.998 167.11 389.017 170.466 386.091 170.809C387.81 171.178 389.358 171.742 390.802 172.766C395.831 176.332 397.369 184.157 393.691 189.209C391.745 191.881 389.051 193.308 385.804 193.806C392.453 194.932 392.489 205.618 385.167 207.037Z"/>
	<path fill="#00F59B" transform="scale(0.539062 0.539062)" d="M402.069 205.933C397.912 208.067 392.745 205.078 392.214 200.516C391.938 198.152 392.938 195.473 394.847 194.037C396.606 192.714 396.663 193.069 398.157 191.257L400.194 188.761C404.502 183.216 402.374 179.635 398.596 174.659C396.867 172.382 396.831 172.678 394.657 170.993C389.666 167.125 392.526 159.309 398.474 158.65C405.115 158.32 408.066 165.56 403.899 170.268C404.462 171.243 406.8 176.03 407.326 176.359C407.615 176.539 408.442 176.496 408.785 176.517C413.986 176.828 417.364 181.247 414.733 186.161C412.935 189.52 410.594 188.73 407.938 189.549C406.687 189.935 404.66 193.695 404.004 194.92L404.962 196.41C406.847 199.89 405.556 204.087 402.069 205.933Z"/>
	<path fill="#00F59B" transform="scale(0.539062 0.539062)" d="M367.054 206.399C362.359 204.688 360.76 199.222 363.88 195.164C364.269 194.657 364.172 194.69 363.871 194.155C359.686 186.715 358.481 191.015 354.654 187.906C352.073 185.809 351.525 181.538 353.682 178.924C355.559 176.651 358.212 176.599 360.912 176.358L364.267 170.178C360.495 166.482 362.666 159.714 367.969 158.831C371.765 158.498 375.387 160.937 375.912 164.86C376.178 166.844 375.361 169.327 373.898 170.699C372.985 171.556 371.791 172.043 370.894 172.914C370.319 173.473 369.838 174.155 369.354 174.793C364.648 180.993 364.207 183.988 368.796 189.859C370.51 192.052 370.933 192.447 373.094 193.963C378.812 197.975 375.048 208.517 367.054 206.399Z"/>
	<path fill="#00F59B" transform="scale(0.539062 0.539062)" d="M441.252 235.528C439.609 238.434 436.867 240.303 433.444 240.326L336.774 240.334C335.709 240.334 334.542 240.42 333.49 240.289C329.522 239.796 326.257 236.332 325.788 232.385C325.648 231.209 325.746 229.935 325.746 228.749L325.75 223.547L367.44 223.575C370.067 223.588 369.776 223.928 370.933 226.536C371.535 227.893 371.383 227.443 372.975 227.443L395.966 227.443C396.695 227.115 397.844 223.576 398.291 223.575L442.369 223.567L442.364 229.261C442.361 231.614 442.392 233.362 441.252 235.528Z"/>
	<path fill="#00F59B" transform="scale(0.539062 0.539062)" d="M470.594 163.668C473.074 163.743 500.913 163.713 501.051 163.645C501.261 163.541 502.633 161.531 503.156 161.101C503.553 160.978 504.03 161.003 504.443 161.001L519.849 161.006C522.915 161.042 521.727 161.959 523.287 163.614L565.825 163.636L565.839 229.718C565.836 232.673 565.929 235.799 563.798 238.162C562.129 240.014 559.317 241.017 556.865 241.134L555.905 241.173L470.558 241.175C469.44 241.174 468.267 241.234 467.156 241.117C459.622 240.326 458.198 236.123 458.194 229.62L458.18 164.915C458.179 164.679 458.11 163.803 458.218 163.675L470.594 163.668ZM555.057 230.561L554.977 172.631L469.344 172.632L469.101 230.573L555.057 230.561Z"/>
	<path fill="#00F59B" transform="scale(0.539062 0.539062)" d="M510.833 176.963C519.735 175.859 521.695 188.604 513.795 190.273C515.396 190.411 516.873 191.077 518.196 191.969C526.496 197.566 523.948 211.237 514.421 212.984C521.116 215.213 519.479 225.028 512.394 225.661C508.885 225.98 505.762 223.082 505.347 219.697C505.002 216.89 506.983 213.534 509.909 213.192C508.19 212.822 506.642 212.258 505.198 211.234C500.169 207.668 498.631 199.843 502.309 194.791C504.255 192.119 506.949 190.692 510.196 190.194C503.547 189.068 503.511 178.382 510.833 176.963Z"/>
	<path fill="#00F59B" transform="scale(0.539062 0.539062)" d="M493.931 178.067C498.088 175.933 503.255 178.922 503.786 183.484C504.062 185.848 503.062 188.527 501.153 189.963C499.394 191.286 499.337 190.931 497.843 192.743L495.806 195.239C491.498 200.784 493.626 204.365 497.404 209.341C499.133 211.618 499.169 211.322 501.343 213.007C506.334 216.875 503.474 224.691 497.526 225.35C490.885 225.68 487.934 218.44 492.101 213.732C491.538 212.757 489.2 207.97 488.674 207.641C488.385 207.461 487.558 207.504 487.215 207.483C482.014 207.172 478.636 202.753 481.267 197.839C483.065 194.48 485.406 195.27 488.062 194.451C489.313 194.065 491.34 190.305 491.996 189.08L491.038 187.59C489.153 184.11 490.444 179.913 493.931 178.067Z"/>
	<path fill="#00F59B" transform="scale(0.539062 0.539062)" d="M454.748 148.472C456.391 145.566 459.134 143.697 462.556 143.674L559.226 143.666C560.291 143.666 561.458 143.58 562.51 143.711C566.478 144.204 569.743 147.668 570.212 151.615C570.352 152.791 570.254 154.065 570.254 155.251L570.25 160.453L528.559 160.425C525.933 160.412 526.224 160.072 525.067 157.464C524.465 156.107 524.617 156.557 523.025 156.557L500.034 156.557C499.305 156.885 498.156 160.424 497.709 160.425L453.631 160.433L453.636 154.739C453.639 152.386 453.608 150.638 454.748 148.472Z"/>
	<path fill="#00F59B" transform="scale(0.539062 0.539062)" d="M105.406 348.332C102.927 348.257 75.087 348.287 74.9493 348.355C74.7392 348.459 73.3672 350.469 72.8438 350.899C72.4465 351.022 71.97 350.997 71.5567 350.999L56.1512 350.994C53.0845 350.957 54.2728 350.041 52.7127 348.385L10.1752 348.364L10.161 282.282C10.1645 279.327 10.0709 276.2 12.2016 273.838C13.8711 271.986 16.6835 270.983 19.1351 270.866L20.0948 270.827L105.442 270.825C106.561 270.826 107.733 270.766 108.844 270.883C116.378 271.674 117.802 275.877 117.806 282.38L117.82 347.085C117.821 347.321 117.89 348.197 117.782 348.325L105.406 348.332ZM20.9432 281.439L21.0233 339.369L106.656 339.368L106.899 281.427L20.9432 281.439Z"/>
	<path fill="#00F59B" transform="scale(0.539062 0.539062)" d="M65.1667 335.037C56.2653 336.14 54.3053 323.396 62.2045 321.728C60.6037 321.589 59.1272 320.923 57.804 320.031C49.5035 314.434 52.052 300.763 61.5793 299.016C54.8837 296.788 56.5213 286.972 63.6065 286.339C67.115 286.02 70.2375 288.918 70.653 292.303C70.9975 295.11 69.0168 298.466 66.0915 298.808C67.8097 299.178 69.3577 299.741 70.802 300.765C75.8312 304.332 77.3692 312.157 73.6907 317.209C71.745 319.881 69.0507 321.308 65.804 321.806C72.4527 322.932 72.489 333.618 65.1667 335.037Z"/>
	<path fill="#00F59B" transform="scale(0.539062 0.539062)" d="M82.0692 333.933C77.9117 336.067 72.745 333.078 72.214 328.516C71.9385 326.152 72.9375 323.473 74.8475 322.037C76.6065 320.714 76.6633 321.069 78.157 319.257L80.194 316.761C84.502 311.216 82.3743 307.635 78.596 302.659C76.867 300.382 76.831 300.678 74.6573 298.993C69.6663 295.125 72.5263 287.309 78.4737 286.65C85.1155 286.32 88.0662 293.56 83.8988 298.268C84.4617 299.243 86.8 304.03 87.3263 304.359C87.615 304.539 88.4415 304.496 88.7853 304.517C93.9862 304.828 97.3637 309.247 94.733 314.161C92.9347 317.52 90.5938 316.73 87.9375 317.549C86.6873 317.935 84.66 321.695 84.0037 322.92L84.9617 324.41C86.8475 327.89 85.5558 332.087 82.0692 333.933Z"/>
	<path fill="#00F59B" transform="scale(0.539062 0.539062)" d="M47.0538 334.399C42.3588 332.688 40.7602 327.222 43.8795 323.164C44.2692 322.657 44.172 322.69 43.8715 322.155C39.686 314.715 38.4813 319.015 34.6545 315.906C32.073 313.808 31.5247 309.538 33.6823 306.924C35.5588 304.651 38.212 304.599 40.9123 304.358L44.267 298.178C40.495 294.482 42.666 287.714 47.9688 286.831C51.765 286.498 55.3867 288.937 55.9123 292.86C56.178 294.844 55.3605 297.327 53.8982 298.699C52.9853 299.556 51.7915 300.043 50.894 300.914C50.3188 301.473 49.838 302.155 49.354 302.793C44.6482 308.993 44.2067 311.988 48.796 317.86C50.5095 320.052 50.9327 320.447 53.0938 321.963C58.8125 325.975 55.0485 336.517 47.0538 334.399Z"/>
	<path fill="#00F59B" transform="scale(0.539062 0.539062)" d="M121.252 363.528C119.609 366.434 116.867 368.303 113.444 368.326L16.7737 368.334C15.709 368.334 14.542 368.42 13.4896 368.289C9.5221 367.796 6.25657 364.332 5.78753 360.385C5.64785 359.209 5.74567 357.935 5.74632 356.749L5.75035 351.547L47.4405 351.575C50.067 351.587 49.7765 351.928 50.9333 354.536C51.535 355.893 51.3828 355.443 52.975 355.443L75.9665 355.443C76.6955 355.115 77.8445 351.576 78.291 351.575L122.369 351.567L122.364 357.261C122.361 359.614 122.392 361.362 121.252 363.528Z"/>
	<path fill="#00F59B" transform="scale(0.539062 0.539062)" d="M150.594 291.668C153.073 291.743 180.913 291.713 181.051 291.645C181.261 291.541 182.633 289.531 183.156 289.101C183.553 288.978 184.03 289.003 184.443 289.001L199.849 289.006C202.916 289.043 201.727 289.959 203.287 291.615L245.825 291.636L245.839 357.718C245.836 360.673 245.929 363.799 243.798 366.162C242.129 368.014 239.317 369.017 236.865 369.134L235.905 369.173L150.558 369.175C149.44 369.174 148.267 369.234 147.156 369.117C139.622 368.326 138.198 364.123 138.194 357.62L138.18 292.915C138.179 292.679 138.11 291.803 138.218 291.675L150.594 291.668ZM235.057 358.561L234.977 300.631L149.344 300.632L149.101 358.573L235.057 358.561Z"/>
	<path fill="#00F59B" transform="scale(0.539062 0.539062)" d="M190.833 304.963C199.735 303.86 201.695 316.604 193.796 318.272C195.396 318.411 196.873 319.077 198.196 319.969C206.496 325.566 203.948 339.237 194.421 340.984C201.116 343.212 199.479 353.028 192.394 353.661C188.885 353.98 185.762 351.082 185.347 347.697C185.002 344.89 186.983 341.534 189.909 341.192C188.19 340.822 186.642 340.259 185.198 339.235C180.169 335.668 178.631 327.843 182.309 322.791C184.255 320.119 186.949 318.692 190.196 318.194C183.547 317.068 183.511 306.382 190.833 304.963Z"/>
	<path fill="#00F59B" transform="scale(0.539062 0.539062)" d="M173.931 306.067C178.088 303.933 183.255 306.922 183.786 311.484C184.061 313.848 183.062 316.527 181.153 317.963C179.394 319.286 179.337 318.931 177.843 320.743L175.806 323.239C171.498 328.784 173.626 332.365 177.404 337.341C179.133 339.618 179.169 339.322 181.343 341.007C186.334 344.875 183.474 352.691 177.526 353.35C170.885 353.68 167.934 346.44 172.101 341.732C171.538 340.757 169.2 335.97 168.674 335.641C168.385 335.461 167.559 335.504 167.215 335.483C162.014 335.172 158.636 330.753 161.267 325.839C163.065 322.48 165.406 323.27 168.062 322.451C169.313 322.065 171.34 318.305 171.996 317.08L171.038 315.59C169.153 312.11 170.444 307.913 173.931 306.067Z"/>
	<path fill="#00F59B" transform="scale(0.539062 0.539062)" d="M208.946 305.601C213.641 307.312 215.24 312.778 212.12 316.836C211.731 317.343 211.828 317.31 212.129 317.845C216.314 325.285 217.519 320.985 221.346 324.094C223.927 326.192 224.475 330.462 222.318 333.076C220.441 335.349 217.788 335.401 215.088 335.642L211.733 341.822C215.505 345.518 213.334 352.286 208.031 353.169C204.235 353.502 200.613 351.063 200.088 347.14C199.822 345.156 200.639 342.673 202.102 341.301C203.015 340.444 204.209 339.957 205.106 339.086C205.681 338.527 206.162 337.845 206.646 337.207C211.352 331.007 211.793 328.012 207.204 322.14C205.49 319.948 205.067 319.553 202.906 318.037C197.188 314.026 200.952 303.483 208.946 305.601Z"/>
	<path fill="#00F59B" transform="scale(0.539062 0.539062)" d="M134.748 276.472C136.391 273.566 139.133 271.697 142.556 271.675L239.226 271.666C240.291 271.666 241.458 271.58 242.51 271.711C246.478 272.204 249.743 275.668 250.212 279.615C250.352 280.791 250.254 282.065 250.254 283.251L250.25 288.453L208.56 288.425C205.933 288.413 206.224 288.072 205.067 285.464C204.465 284.107 204.617 284.557 203.025 284.557L180.034 284.557C179.304 284.885 178.156 288.424 177.709 288.425L133.631 288.433L133.636 282.739C133.639 280.386 133.608 278.638 134.748 276.472Z"/>
	<path fill="#00F59B" transform="scale(0.539062 0.539062)" d="M361.406 348.332C358.927 348.257 331.087 348.287 330.949 348.355C330.739 348.459 329.367 350.469 328.844 350.899C328.447 351.022 327.97 350.997 327.557 350.999L312.151 350.994C309.084 350.957 310.273 350.041 308.713 348.385L266.175 348.364L266.161 282.282C266.164 279.327 266.071 276.2 268.202 273.838C269.871 271.986 272.683 270.983 275.135 270.866L276.095 270.827L361.442 270.825C362.561 270.826 363.733 270.766 364.844 270.883C372.378 271.674 373.802 275.877 373.806 282.38L373.82 347.085C373.821 347.321 373.89 348.197 373.782 348.325L361.406 348.332ZM276.943 281.439L277.023 339.369L362.656 339.368L362.899 281.427L276.943 281.439Z"/>
	<path fill="#00F59B" transform="scale(0.539062 0.539062)" d="M321.167 335.037C312.265 336.14 310.305 323.396 318.204 321.728C316.604 321.589 315.127 320.923 313.804 320.031C305.504 314.434 308.052 300.763 317.579 299.016C310.884 296.788 312.521 286.972 319.606 286.339C323.115 286.02 326.238 288.918 326.653 292.303C326.998 295.11 325.017 298.466 322.091 298.808C323.81 299.178 325.358 299.741 326.802 300.765C331.831 304.332 333.369 312.157 329.691 317.209C327.745 319.881 325.051 321.308 321.804 321.806C328.453 322.932 328.489 333.618 321.167 335.037Z"/>
	<path fill="#00F59B" transform="scale(0.539062 0.539062)" d="M338.069 333.933C333.912 336.067 328.745 333.078 328.214 328.516C327.938 326.152 328.938 323.473 330.847 322.037C332.606 320.714 332.663 321.069 334.157 319.257L336.194 316.761C340.502 311.216 338.374 307.635 334.596 302.659C332.867 300.382 332.831 300.678 330.657 298.993C325.666 295.125 328.526 287.309 334.474 286.65C341.115 286.32 344.066 293.56 339.899 298.268C340.462 299.243 342.8 304.03 343.326 304.359C343.615 304.539 344.442 304.496 344.785 304.517C349.986 304.828 353.364 309.247 350.733 314.161C348.935 317.52 346.594 316.73 343.938 317.549C342.687 317.935 340.66 321.695 340.004 322.92L340.962 324.41C342.847 327.89 341.556 332.087 338.069 333.933Z"/>
	<path fill="#00F59B" transform="scale(0.539062 0.539062)" d="M303.054 334.399C298.359 332.688 296.76 327.222 299.88 323.164C300.269 322.657 300.172 322.69 299.871 322.155C295.686 314.715 294.481 319.015 290.654 315.906C288.073 313.808 287.525 309.538 289.682 306.924C291.559 304.651 294.212 304.599 296.912 304.358L300.267 298.178C296.495 294.482 298.666 287.714 303.969 286.831C307.765 286.498 311.387 288.937 311.912 292.86C312.178 294.844 311.361 297.327 309.898 298.699C308.985 299.556 307.791 300.043 306.894 300.914C306.319 301.473 305.838 302.155 305.354 302.793C300.648 308.993 300.207 311.988 304.796 317.86C306.51 320.052 306.933 320.447 309.094 321.963C314.812 325.975 311.048 336.517 303.054 334.399Z"/>
	<path fill="#00F59B" transform="scale(0.539062 0.539062)" d="M377.252 363.528C375.609 366.434 372.867 368.303 369.444 368.326L272.774 368.334C271.709 368.334 270.542 368.42 269.49 368.289C265.522 367.796 262.257 364.332 261.788 360.385C261.648 359.209 261.746 357.935 261.746 356.749L261.75 351.547L303.44 351.575C306.067 351.587 305.776 351.928 306.933 354.536C307.535 355.893 307.383 355.443 308.975 355.443L331.966 355.443C332.695 355.115 333.844 351.576 334.291 351.575L378.369 351.567L378.364 357.261C378.361 359.614 378.392 361.362 377.252 363.528Z"/>
	<path fill="#00F59B" transform="scale(0.539062 0.539062)" d="M406.594 291.668C409.074 291.743 436.913 291.713 437.051 291.645C437.261 291.541 438.633 289.531 439.156 289.101C439.553 288.978 440.03 289.003 440.443 289.001L455.849 289.006C458.916 289.043 457.727 289.959 459.287 291.615L501.825 291.636L501.839 357.718C501.836 360.673 501.929 363.799 499.798 366.162C498.129 368.014 495.317 369.017 492.865 369.134L491.905 369.173L406.558 369.175C405.44 369.174 404.267 369.234 403.156 369.117C395.622 368.326 394.198 364.123 394.194 357.62L394.18 292.915C394.179 292.679 394.11 291.803 394.218 291.675L406.594 291.668ZM491.057 358.561L490.977 300.631L405.344 300.632L405.101 358.573L491.057 358.561Z"/>
	<path fill="#00F59B" transform="scale(0.539062 0.539062)" d="M446.833 304.963C455.735 303.86 457.695 316.604 449.796 318.272C451.396 318.411 452.873 319.077 454.196 319.969C462.496 325.566 459.948 339.237 450.421 340.984C457.116 343.212 455.479 353.028 448.394 353.661C444.885 353.98 441.762 351.082 441.347 347.697C441.002 344.89 442.983 341.534 445.909 341.192C444.19 340.822 442.642 340.259 441.198 339.235C436.169 335.668 434.631 327.843 438.309 322.791C440.255 320.119 442.949 318.692 446.196 318.194C439.547 317.068 439.511 306.382 446.833 304.963Z"/>
	<path fill="#00F59B" transform="scale(0.539062 0.539062)" d="M429.931 306.067C434.088 303.933 439.255 306.922 439.786 311.484C440.062 313.848 439.062 316.527 437.153 317.963C435.394 319.286 435.337 318.931 433.843 320.743L431.806 323.239C427.498 328.784 429.626 332.365 433.404 337.341C435.133 339.618 435.169 339.322 437.343 341.007C442.334 344.875 439.474 352.691 433.526 353.35C426.885 353.68 423.934 346.44 428.101 341.732C427.538 340.757 425.2 335.97 424.674 335.641C424.385 335.461 423.558 335.504 423.215 335.483C418.014 335.172 414.636 330.753 417.267 325.839C419.065 322.48 421.406 323.27 424.062 322.451C425.313 322.065 427.34 318.305 427.996 317.08L427.038 315.59C425.153 312.11 426.444 307.913 429.931 306.067Z"/>
	<path fill="#00F59B" transform="scale(0.539062 0.539062)" d="M464.946 305.601C469.641 307.312 471.24 312.778 468.12 316.836C467.731 317.343 467.828 317.31 468.129 317.845C472.314 325.285 473.519 320.985 477.346 324.094C479.927 326.192 480.475 330.462 478.318 333.076C476.441 335.349 473.788 335.401 471.088 335.642L467.733 341.822C471.505 345.518 469.334 352.286 464.031 353.169C460.235 353.502 456.613 351.063 456.088 347.14C455.822 345.156 456.639 342.673 458.102 341.301C459.015 340.444 460.209 339.957 461.106 339.086C461.681 338.527 462.162 337.845 462.646 337.207C467.352 331.007 467.793 328.012 463.204 322.14C461.49 319.948 461.067 319.553 458.906 318.037C453.188 314.026 456.952 303.483 464.946 305.601Z"/>
	<path fill="#00F59B" transform="scale(0.539062 0.539062)" d="M390.748 276.472C392.391 273.566 395.134 271.697 398.556 271.675L495.226 271.666C496.291 271.666 497.458 271.58 498.51 271.711C502.478 272.204 505.743 275.668 506.212 279.615C506.352 280.791 506.254 282.065 506.254 283.251L506.25 288.453L464.56 288.425C461.933 288.413 462.224 288.072 461.067 285.464C460.465 284.107 460.617 284.557 459.025 284.557L436.034 284.557C435.305 284.885 434.156 288.424 433.709 288.425L389.631 288.433L389.636 282.739C389.639 280.386 389.608 278.638 390.748 276.472Z"/>
	<path fill="#00F59B" transform="scale(0.539062 0.539062)" d="M-41.4062 419.668C-38.9265 419.743 -11.087 419.713 -10.9493 419.645C-10.7392 419.541 -9.3672 417.531 -8.8438 417.101C-8.4465 416.978 -7.97 417.003 -7.5567 417.001L7.8487 417.006C10.9155 417.043 9.7272 417.959 11.2873 419.615L53.825 419.636L53.839 485.718C53.836 488.673 53.929 491.799 51.798 494.162C50.129 496.014 47.317 497.017 44.865 497.134L43.905 497.173L-41.4423 497.175C-42.5605 497.174 -43.7325 497.234 -44.8438 497.117C-52.378 496.326 -53.8017 492.123 -53.8063 485.62L-53.8195 420.915C-53.8208 420.679 -53.8902 419.803 -53.7823 419.675L-41.4062 419.668ZM43.057 486.561L42.977 428.631L-42.6562 428.632L-42.8988 486.573L43.057 486.561Z"/>
	<path fill="#00F59B" transform="scale(0.539062 0.539062)" d="M-1.1667 432.963C7.7347 431.86 9.6947 444.604 1.7955 446.272C3.3963 446.411 4.8727 447.077 6.196 447.969C14.4965 453.566 11.948 467.237 2.4207 468.984C9.1163 471.212 7.4787 481.028 0.3935 481.661C-3.115 481.98 -6.2375 479.082 -6.653 475.697C-6.9975 472.89 -5.0168 469.534 -2.0915 469.192C-3.8097 468.822 -5.3577 468.259 -6.802 467.235C-11.8312 463.668 -13.3692 455.843 -9.6907 450.791C-7.745 448.119 -5.0507 446.692 -1.804 446.194C-8.4527 445.068 -8.489 434.382 -1.1667 432.963Z"/>
	<path fill="#00F59B" transform="scale(0.539062 0.539062)" d="M16.9462 433.601C21.6412 435.312 23.2398 440.778 20.1205 444.836C19.7308 445.343 19.828 445.31 20.1285 445.845C24.314 453.285 25.5187 448.985 29.3455 452.094C31.927 454.192 32.4753 458.462 30.3177 461.076C28.4412 463.349 25.788 463.401 23.0877 463.642L19.733 469.822C23.505 473.518 21.334 480.286 16.0312 481.169C12.235 481.502 8.6132 479.063 8.0877 475.14C7.822 473.156 8.6395 470.673 10.1018 469.301C11.0147 468.444 12.2085 467.957 13.106 467.086C13.6813 466.527 14.162 465.845 14.646 465.207C19.3518 459.007 19.7933 456.012 15.204 450.14C13.4905 447.948 13.0673 447.553 10.9062 446.037C5.1875 442.026 8.9515 431.483 16.9462 433.601Z"/>
	<path fill="#00F59B" transform="scale(0.539062 0.539062)" d="M-57.2518 404.472C-55.609 401.566 -52.8665 399.697 -49.444 399.675L47.226 399.666C48.291 399.666 49.458 399.58 50.51 399.711C54.478 400.204 57.743 403.668 58.212 407.615C58.352 408.791 58.254 410.065 58.254 411.251L58.25 416.453L16.5595 416.425C13.933 416.413 14.2235 416.072 13.0667 413.464C12.465 412.107 12.6172 412.557 11.025 412.557L-11.9665 412.557C-12.6955 412.885 -13.8445 416.424 -14.291 416.425L-58.3693 416.433L-58.3642 410.739C-58.3605 408.386 -58.3922 406.638 -57.2518 404.472Z"/>
	<path fill="#00F59B" transform="scale(0.539062 0.539062)" d="M169.406 476.332C166.927 476.257 139.087 476.287 138.949 476.355C138.739 476.459 137.367 478.469 136.844 478.899C136.447 479.022 135.97 478.997 135.557 478.999L120.151 478.994C117.084 478.957 118.273 478.041 116.713 476.385L74.1752 476.364L74.161 410.282C74.1645 407.327 74.0709 404.2 76.2016 401.838C77.8711 399.986 80.6835 398.983 83.1351 398.866L84.0948 398.827L169.442 398.825C170.561 398.826 171.733 398.766 172.844 398.883C180.378 399.674 181.802 403.877 181.806 410.38L181.82 475.085C181.821 475.321 181.89 476.197 181.782 476.325L169.406 476.332ZM84.9432 409.439L85.0233 467.369L170.656 467.368L170.899 409.427L84.9432 409.439Z"/>
	<path fill="#00F59B" transform="scale(0.539062 0.539062)" d="M129.167 463.037C120.265 464.14 118.305 451.396 126.204 449.728C124.604 449.589 123.127 448.923 121.804 448.031C113.504 442.434 116.052 428.763 125.579 427.016C118.884 424.788 120.521 414.972 127.606 414.339C131.115 414.02 134.238 416.918 134.653 420.303C134.998 423.11 133.017 426.466 130.091 426.808C131.81 427.178 133.358 427.741 134.802 428.765C139.831 432.332 141.369 440.157 137.691 445.209C135.745 447.881 133.051 449.308 129.804 449.806C136.453 450.932 136.489 461.618 129.167 463.037Z"/>
	<path fill="#00F59B" transform="scale(0.539062 0.539062)" d="M146.069 461.933C141.912 464.067 136.745 461.078 136.214 456.516C135.939 454.152 136.938 451.473 138.847 450.037C140.606 448.714 140.663 449.069 142.157 447.257L144.194 444.761C148.502 439.216 146.374 435.635 142.596 430.659C140.867 428.382 140.831 428.678 138.657 426.993C133.666 423.125 136.526 415.309 142.474 414.65C149.115 414.32 152.066 421.56 147.899 426.268C148.462 427.243 150.8 432.03 151.326 432.359C151.615 432.539 152.442 432.496 152.785 432.517C157.986 432.828 161.364 437.247 158.733 442.161C156.935 445.52 154.594 444.73 151.938 445.549C150.687 445.935 148.66 449.695 148.004 450.92L148.962 452.41C150.847 455.89 149.556 460.087 146.069 461.933Z"/>
	<path fill="#00F59B" transform="scale(0.539062 0.539062)" d="M111.054 462.399C106.359 460.688 104.76 455.222 107.88 451.164C108.269 450.657 108.172 450.69 107.871 450.155C103.686 442.715 102.481 447.015 98.6545 443.906C96.073 441.808 95.5247 437.538 97.6823 434.924C99.5588 432.651 102.212 432.599 104.912 432.358L108.267 426.178C104.495 422.482 106.666 415.714 111.969 414.831C115.765 414.498 119.387 416.937 119.912 420.86C120.178 422.844 119.361 425.327 117.898 426.699C116.985 427.556 115.791 428.043 114.894 428.914C114.319 429.473 113.838 430.155 113.354 430.793C108.648 436.993 108.207 439.988 112.796 445.86C114.51 448.052 114.933 448.447 117.094 449.963C122.812 453.975 119.048 464.517 111.054 462.399Z"/>
	<path fill="#00F59B" transform="scale(0.539062 0.539062)" d="M185.252 491.528C183.609 494.434 180.867 496.303 177.444 496.326L80.7737 496.334C79.709 496.334 78.542 496.42 77.4896 496.289C73.5221 495.796 70.2566 492.332 69.7875 488.385C69.6479 487.209 69.7457 485.935 69.7463 484.749L69.7503 479.547L111.441 479.575C114.067 479.587 113.776 479.928 114.933 482.536C115.535 483.893 115.383 483.443 116.975 483.443L139.966 483.443C140.695 483.115 141.844 479.576 142.291 479.575L186.369 479.567L186.364 485.261C186.361 487.614 186.392 489.362 185.252 491.528Z"/>
	<path fill="#00F59B" transform="scale(0.539062 0.539062)" d="M214.594 419.668C217.073 419.743 244.913 419.713 245.051 419.645C245.261 419.541 246.633 417.531 247.156 417.101C247.553 416.978 248.03 417.003 248.443 417.001L263.849 417.006C266.916 417.043 265.727 417.959 267.287 419.615L309.825 419.636L309.839 485.718C309.836 488.673 309.929 491.799 307.798 494.162C306.129 496.014 303.317 497.017 300.865 497.134L299.905 497.173L214.558 497.175C213.44 497.174 212.267 497.234 211.156 497.117C203.622 496.326 202.198 492.123 202.194 485.62L202.18 420.915C202.179 420.679 202.11 419.803 202.218 419.675L214.594 419.668ZM299.057 486.561L298.977 428.631L213.344 428.632L213.101 486.573L299.057 486.561Z"/>
	<path fill="#00F59B" transform="scale(0.539062 0.539062)" d="M254.833 432.963C263.735 431.86 265.695 444.604 257.796 446.272C259.396 446.411 260.873 447.077 262.196 447.969C270.496 453.566 267.948 467.237 258.421 468.984C265.116 471.212 263.479 481.028 256.394 481.661C252.885 481.98 249.762 479.082 249.347 475.697C249.002 472.89 250.983 469.534 253.909 469.192C252.19 468.822 250.642 468.259 249.198 467.235C244.169 463.668 242.631 455.843 246.309 450.791C248.255 448.119 250.949 446.692 254.196 446.194C247.547 445.068 247.511 434.382 254.833 432.963Z"/>
	<path fill="#00F59B" transform="scale(0.539062 0.539062)" d="M237.931 434.067C242.088 431.933 247.255 434.922 247.786 439.484C248.061 441.848 247.062 444.527 245.153 445.963C243.394 447.286 243.337 446.931 241.843 448.743L239.806 451.239C235.498 456.784 237.626 460.365 241.404 465.341C243.133 467.618 243.169 467.322 245.343 469.007C250.334 472.875 247.474 480.691 241.526 481.35C234.885 481.68 231.934 474.44 236.101 469.732C235.538 468.757 233.2 463.97 232.674 463.641C232.385 463.461 231.559 463.504 231.215 463.483C226.014 463.172 222.636 458.753 225.267 453.839C227.065 450.48 229.406 451.27 232.062 450.451C233.313 450.065 235.34 446.305 235.996 445.08L235.038 443.59C233.153 440.11 234.444 435.913 237.931 434.067Z"/>
	<path fill="#00F59B" transform="scale(0.539062 0.539062)" d="M272.946 433.601C277.641 435.312 279.24 440.778 276.12 444.836C275.731 445.343 275.828 445.31 276.129 445.845C280.314 453.285 281.519 448.985 285.346 452.094C287.927 454.192 288.475 458.462 286.318 461.076C284.441 463.349 281.788 463.401 279.088 463.642L275.733 469.822C279.505 473.518 277.334 480.286 272.031 481.169C268.235 481.502 264.613 479.063 264.088 475.14C263.822 473.156 264.639 470.673 266.102 469.301C267.015 468.444 268.209 467.957 269.106 467.086C269.681 466.527 270.162 465.845 270.646 465.207C275.352 459.007 275.793 456.012 271.204 450.14C269.49 447.948 269.067 447.553 266.906 446.037C261.188 442.026 264.952 431.483 272.946 433.601Z"/>
	<path fill="#00F59B" transform="scale(0.539062 0.539062)" d="M198.748 404.472C200.391 401.566 203.133 399.697 206.556 399.675L303.226 399.666C304.291 399.666 305.458 399.58 306.51 399.711C310.478 400.204 313.743 403.668 314.212 407.615C314.352 408.791 314.254 410.065 314.254 411.251L314.25 416.453L272.56 416.425C269.933 416.413 270.224 416.072 269.067 413.464C268.465 412.107 268.617 412.557 267.025 412.557L244.034 412.557C243.304 412.885 242.156 416.424 241.709 416.425L197.631 416.433L197.636 410.739C197.639 408.386 197.608 406.638 198.748 404.472Z"/>
	<path fill="#00F59B" transform="scale(0.539062 0.539062)" d="M425.406 476.332C422.927 476.257 395.087 476.287 394.949 476.355C394.739 476.459 393.367 478.469 392.844 478.899C392.447 479.022 391.97 478.997 391.557 478.999L376.151 478.994C373.084 478.957 374.273 478.041 372.713 476.385L330.175 476.364L330.161 410.282C330.164 407.327 330.071 404.2 332.202 401.838C333.871 399.986 336.683 398.983 339.135 398.866L340.095 398.827L425.442 398.825C426.561 398.826 427.733 398.766 428.844 398.883C436.378 399.674 437.802 403.877 437.806 410.38L437.82 475.085C437.821 475.321 437.89 476.197 437.782 476.325L425.406 476.332ZM340.943 409.439L341.023 467.369L426.656 467.368L426.899 409.427L340.943 409.439Z"/>
	<path fill="#00F59B" transform="scale(0.539062 0.539062)" d="M385.167 463.037C376.265 464.14 374.305 451.396 382.204 449.728C380.604 449.589 379.127 448.923 377.804 448.031C369.504 442.434 372.052 428.763 381.579 427.016C374.884 424.788 376.521 414.972 383.606 414.339C387.115 414.02 390.238 416.918 390.653 420.303C390.998 423.11 389.017 426.466 386.091 426.808C387.81 427.178 389.358 427.741 390.802 428.765C395.831 432.332 397.369 440.157 393.691 445.209C391.745 447.881 389.051 449.308 385.804 449.806C392.453 450.932 392.489 461.618 385.167 463.037Z"/>
	<path fill="#00F59B" transform="scale(0.539062 0.539062)" d="M402.069 461.933C397.912 464.067 392.745 461.078 392.214 456.516C391.938 454.152 392.938 451.473 394.847 450.037C396.606 448.714 396.663 449.069 398.157 447.257L400.194 444.761C404.502 439.216 402.374 435.635 398.596 430.659C396.867 428.382 396.831 428.678 394.657 426.993C389.666 423.125 392.526 415.309 398.474 414.65C405.115 414.32 408.066 421.56 403.899 426.268C404.462 427.243 406.8 432.03 407.326 432.359C407.615 432.539 408.442 432.496 408.785 432.517C413.986 432.828 417.364 437.247 414.733 442.161C412.935 445.52 410.594 444.73 407.938 445.549C406.687 445.935 404.66 449.695 404.004 450.92L404.962 452.41C406.847 455.89 405.556 460.087 402.069 461.933Z"/>
	<path fill="#00F59B" transform="scale(0.539062 0.539062)" d="M367.054 462.399C362.359 460.688 360.76 455.222 363.88 451.164C364.269 450.657 364.172 450.69 363.871 450.155C359.686 442.715 358.481 447.015 354.654 443.906C352.073 441.808 351.525 437.538 353.682 434.924C355.559 432.651 358.212 432.599 360.912 432.358L364.267 426.178C360.495 422.482 362.666 415.714 367.969 414.831C371.765 414.498 375.387 416.937 375.912 420.86C376.178 422.844 375.361 425.327 373.898 426.699C372.985 427.556 371.791 428.043 370.894 428.914C370.319 429.473 369.838 430.155 369.354 430.793C364.648 436.993 364.207 439.988 368.796 445.86C370.51 448.052 370.933 448.447 373.094 449.963C378.812 453.975 375.048 464.517 367.054 462.399Z"/>
	<path fill="#00F59B" transform="scale(0.539062 0.539062)" d="M441.252 491.528C439.609 494.434 436.867 496.303 433.444 496.326L336.774 496.334C335.709 496.334 334.542 496.42 333.49 496.289C329.522 495.796 326.257 492.332 325.788 488.385C325.648 487.209 325.746 485.935 325.746 484.749L325.75 479.547L367.44 479.575C370.067 479.587 369.776 479.928 370.933 482.536C371.535 483.893 371.383 483.443 372.975 483.443L395.966 483.443C396.695 483.115 397.844 479.576 398.291 479.575L442.369 479.567L442.364 485.261C442.361 487.614 442.392 489.362 441.252 491.528Z"/>
	<path fill="#00F59B" transform="scale(0.539062 0.539062)" d="M470.594 419.668C473.074 419.743 500.913 419.713 501.051 419.645C501.261 419.541 502.633 417.531 503.156 417.101C503.553 416.978 504.03 417.003 504.443 417.001L519.849 417.006C522.915 417.043 521.727 417.959 523.287 419.615L565.825 419.636L565.839 485.718C565.836 488.673 565.929 491.799 563.798 494.162C562.129 496.014 559.317 497.017 556.865 497.134L555.905 497.173L470.558 497.175C469.44 497.174 468.267 497.234 467.156 497.117C459.622 496.326 458.198 492.123 458.194 485.62L458.18 420.915C458.179 420.679 458.11 419.803 458.218 419.675L470.594 419.668ZM555.057 486.561L554.977 428.631L469.344 428.632L469.101 486.573L555.057 486.561Z"/>
	<path fill="#00F59B" transform="scale(0.539062 0.539062)" d="M510.833 432.963C519.735 431.86 521.695 444.604 513.795 446.272C515.396 446.411 516.873 447.077 518.196 447.969C526.496 453.566 523.948 467.237 514.421 468.984C521.116 471.212 519.479 481.028 512.394 481.661C508.885 481.98 505.762 479.082 505.347 475.697C505.002 472.89 506.983 469.534 509.909 469.192C508.19 468.822 506.642 468.259 505.198 467.235C500.169 463.668 498.631 455.843 502.309 450.791C504.255 448.119 506.949 446.692 510.196 446.194C503.547 445.068 503.511 434.382 510.833 432.963Z"/>
	<path fill="#00F59B" transform="scale(0.539062 0.539062)" d="M493.931 434.067C498.088 431.933 503.255 434.922 503.786 439.484C504.062 441.848 503.062 444.527 501.153 445.963C499.394 447.286 499.337 446.931 497.843 448.743L495.806 451.239C491.498 456.784 493.626 460.365 497.404 465.341C499.133 467.618 499.169 467.322 501.343 469.007C506.334 472.875 503.474 480.691 497.526 481.35C490.885 481.68 487.934 474.44 492.101 469.732C491.538 468.757 489.2 463.97 488.674 463.641C488.385 463.461 487.558 463.504 487.215 463.483C482.014 463.172 478.636 458.753 481.267 453.839C483.065 450.48 485.406 451.27 488.062 450.451C489.313 450.065 491.34 446.305 491.996 445.08L491.038 443.59C489.153 440.11 490.444 435.913 493.931 434.067Z"/>
	<path fill="#00F59B" transform="scale(0.539062 0.539062)" d="M454.748 404.472C456.391 401.566 459.134 399.697 462.556 399.675L559.226 399.666C560.291 399.666 561.458 399.58 562.51 399.711C566.478 400.204 569.743 403.668 570.212 407.615C570.352 408.791 570.254 410.065 570.254 411.251L570.25 416.453L528.559 416.425C525.933 416.413 526.224 416.072 525.067 413.464C524.465 412.107 524.617 412.557 523.025 412.557L500.034 412.557C499.305 412.885 498.156 416.424 497.709 416.425L453.631 416.433L453.636 410.739C453.639 408.386 453.608 406.638 454.748 404.472Z"/>
</svg>
