<?xml version="1.0" encoding="utf-8" ?>
<svg xmlns="http://www.w3.org/2000/svg" xmlns:xlink="http://www.w3.org/1999/xlink" width="276" height="276">
	<path transform="scale(0.539062 0.539062)" d="M421.625 369.327C411.706 369.029 300.348 369.149 299.797 369.421C298.957 369.835 293.469 377.877 291.375 379.597C289.786 380.088 287.88 379.988 286.227 379.995L224.605 379.975C212.338 379.83 217.091 376.163 210.851 369.542L40.7008 369.456L40.6441 105.127C40.6579 93.3077 40.2834 80.802 48.8065 71.3507C55.4844 63.9456 66.734 59.9334 76.5405 59.4638L80.379 59.3089L421.769 59.3013C426.242 59.3028 430.93 59.0644 435.375 59.5314C465.512 62.6973 471.207 79.508 471.225 105.519L471.278 364.341C471.283 365.284 471.561 368.788 471.129 369.298L421.625 369.327ZM83.7726 101.755L84.0932 333.476L426.625 333.47L427.595 101.708L83.7726 101.755Z"/>
	<path transform="scale(0.539062 0.539062)" d="M260.667 316.149C225.061 320.562 217.221 269.585 248.818 262.91C242.415 262.357 236.509 259.694 231.216 256.125C198.014 233.735 208.208 179.053 246.317 172.065C219.535 163.15 226.085 123.888 254.426 121.355C268.46 120.082 280.95 131.672 282.612 145.213C283.99 156.44 276.067 169.863 264.366 171.234C271.239 172.713 277.431 174.966 283.208 179.062C303.325 193.327 309.477 224.628 294.763 244.835C286.98 255.525 276.203 261.233 263.216 263.225C289.811 267.728 289.956 310.47 260.667 316.149Z"/>
	<path transform="scale(0.539062 0.539062)" d="M328.277 311.733C311.647 320.267 290.98 308.313 288.856 290.063C287.754 280.607 291.75 269.892 299.39 264.147C306.426 258.856 306.653 260.276 312.628 253.03L320.776 243.043C338.008 220.866 329.497 206.539 314.384 186.636C307.468 177.528 307.324 178.713 298.629 171.974C278.665 156.502 290.105 125.237 313.895 122.599C340.462 121.279 352.265 150.239 335.595 169.071C337.847 172.973 347.2 192.12 349.305 193.435C350.46 194.156 353.766 193.984 355.141 194.067C375.945 195.311 389.455 212.987 378.932 232.643C371.739 246.079 362.375 242.918 351.75 246.197C346.749 247.74 338.64 262.779 336.015 267.681L339.847 273.64C347.39 287.561 342.223 304.347 328.277 311.733Z"/>
	<path transform="scale(0.539062 0.539062)" d="M188.215 313.594C169.435 306.752 163.041 284.887 175.518 268.655C177.077 266.627 176.688 266.758 175.486 264.62C158.744 234.861 153.925 252.06 138.618 239.623C128.292 231.234 126.099 214.151 134.729 203.696C142.235 194.603 152.848 194.396 163.649 193.43L177.068 168.711C161.98 153.928 170.664 126.856 191.875 123.322C207.06 121.992 221.547 131.749 223.649 147.439C224.712 155.375 221.442 165.309 215.593 170.797C211.941 174.223 207.166 176.174 203.576 179.657C201.275 181.891 199.352 184.62 197.416 187.171C178.593 211.973 176.827 223.952 195.184 247.438C202.038 256.207 203.731 257.787 212.375 263.851C235.25 279.898 220.194 322.07 188.215 313.594Z"/>
	<path transform="scale(0.539062 0.539062)" d="M485.007 430.113C478.436 441.735 467.466 449.212 453.776 449.302L67.0946 449.334C62.8362 449.334 58.168 449.681 53.9586 449.157C38.0884 447.184 25.0263 433.329 23.1501 417.538C22.5914 412.836 22.9827 407.739 22.9853 402.995L23.0014 382.189L189.762 382.301C200.268 382.35 199.106 383.714 203.733 394.144C206.14 399.572 205.531 397.771 211.9 397.771L303.866 397.773C306.782 396.462 311.378 382.305 313.164 382.3L489.477 382.267L489.457 405.043C489.442 414.456 489.569 421.449 485.007 430.113Z"/>
</svg>
